<svg xmlns="http://www.w3.org/2000/svg" width="49.501" height="49.506" viewBox="0 0 49.501 49.506"><g transform="translate(0.001 -0.001)"><path d="M341.665,368.531a.735.735,0,0,0,.471-1.3l-11.722-9.76a.735.735,0,0,0-.941,1.13l11.722,9.76A.731.731,0,0,0,341.665,368.531Zm0,0" transform="translate(-297.377 -322.752)" fill="#fff"/><path d="M58.288,357.473l-11.722,9.76a.735.735,0,0,0,.941,1.13l11.722-9.76a.735.735,0,0,0-.941-1.13Zm0,0" transform="translate(-41.825 -322.754)" fill="#fff"/><path d="M49.5,18.118a.736.736,0,0,0-.265-.565l-5.176-4.31V8.524a6.074,6.074,0,0,0-6.067-6.067H31.1l-.331-.276a9.412,9.412,0,0,0-12.048,0l-.331.276H16.908a.735.735,0,0,0,0,1.47H37.991a4.6,4.6,0,0,1,4.6,4.6v5.059h0V22.3L29.832,32.925a7.941,7.941,0,0,1-10.166,0L6.911,22.3v-8.72h0V8.524a4.6,4.6,0,0,1,4.6-4.6h2.458a.735.735,0,1,0,0-1.47H11.509A6.075,6.075,0,0,0,5.44,8.524v4.718L.264,17.553A.734.734,0,0,0,0,18.112s0,0,0,.006V44.161a5.352,5.352,0,0,0,5.346,5.346H38.276a.735.735,0,0,0,0-1.47H5.345a3.88,3.88,0,0,1-3.876-3.876V19.686l4.238,3.529h0L18.725,34.055a9.412,9.412,0,0,0,12.048,0L43.788,23.218l.006-.005,4.235-3.526V44.161a3.88,3.88,0,0,1-3.876,3.876H41.217a.735.735,0,0,0,0,1.47h2.936A5.352,5.352,0,0,0,49.5,44.161V18.124s0,0,0-.006ZM28.58,2.457H20.919A7.944,7.944,0,0,1,28.58,2.457ZM5.44,15.156V21.08L1.883,18.118Zm38.618,5.923V15.156l3.557,2.962Zm0,0" transform="translate(0 0)" fill="#fff"/><path d="M159.158,210.625H137.594a.735.735,0,1,0,0,1.47h21.564a.735.735,0,1,0,0-1.47Zm0,0" transform="translate(-123.626 -190.259)" fill="#fff"/><path d="M159.158,254.781H137.594a.735.735,0,1,0,0,1.47h21.564a.735.735,0,1,0,0-1.47Zm0,0" transform="translate(-123.626 -230.145)" fill="#fff"/><path d="M159.158,122.309H137.594a.735.735,0,1,0,0,1.47h21.564a.735.735,0,1,0,0-1.47Zm0,0" transform="translate(-123.626 -110.482)" fill="#fff"/><path d="M310.255,166.469h-5.391a.735.735,0,0,0,0,1.47h5.391a.735.735,0,0,0,0-1.47Zm0,0" transform="translate(-274.723 -150.372)" fill="#fff"/><path d="M137.595,167.939h13.723a.735.735,0,1,0,0-1.47H137.595a.735.735,0,1,0,0,1.47Zm0,0" transform="translate(-123.627 -150.372)" fill="#fff"/></g></svg>