<svg xmlns="http://www.w3.org/2000/svg" width="183.239" height="154.677" viewBox="0 0 183.239 154.677"><g transform="translate(-399.001 -3031.47)"><g transform="translate(399.001 3031.47)"><g transform="translate(0 0)"><path d="M107.08,10.088c-.343-.343-1.277-1.589-1.863-1.584-.623.006-1.071,1.017-1.677,1.214-.708.227-1.53-.091-2.049.466-.322.346-.3.9-.466,1.491-.6.546-1.53.768-2.049,1.4v1.214c-.838.653-1.823,1.158-2.608,1.863-.261,1.353-.031,3.2-.652,4.192-1.006-.143-2-.3-3.074-.373-.6-.4-.532-.768-1.118-.745-.5.019-.867.936-1.214.928-.041,0-.928-.793-1.118-.928a2.851,2.851,0,0,0-1.3-.745c-1.043-.081-1.372.586-2.7.279a9.587,9.587,0,0,0-2.7,3.819c-.6.235-1.167.51-1.77.745-.44-.243-.828-.538-1.3-.745a4.631,4.631,0,0,0-1.4,1.025v3.26c-.671.878-1.772,2.015-1.117,3.633-1.2.8-1.522,2.94-1.863,4.284a3.374,3.374,0,0,0,3.54.559c.542.607,1.812.486,2.516.928.407.939-.935.862-1.584,1.214-1.388.747-1.505,1.865-1.584,3.633A8.908,8.908,0,0,0,75.686,40c-.471.119-.583.6-1.118.652-.815-.123-1.483-.71-2.236-.559-1.357.272-.986,1.909-1.4,3.168A5.712,5.712,0,0,1,69.351,45.4c-1.415,1.014-2.5.476-4.751.838-.266,1.224-1.225,1.755-1.956,2.516v1.77c-1.415.025-1.791,2.178-1.025,3.26-1.26,1.428.76,2.948,0,4.751-1.755.418-2.663,1.684-2.329,4.192-.874.9-2.071,1.959-1.49,4.006a3.539,3.539,0,0,0,2.888-.279,2.883,2.883,0,0,0,.186,1.025c.686.09.952.6,1.214,1.118a3.264,3.264,0,0,0-.466,2.422,1.762,1.762,0,0,0-1.77.559c-.578-.261-1.62-.057-2.049-.466-.528-.8.634-.889.279-1.77,1.24-.286.281-1.449-.279-1.77-.286-.8-.685-1.421-1.491-1.3-.618.09-.758,1.169-1.49,1.4-1.377.428-1.877-.594-3.26-.373a5.07,5.07,0,0,1-3.168,4.1c-.714-1.1-2.268-.959-3.819-.652a4.527,4.527,0,0,1-1.117,1.3c.17,1.329.941,2.248.466,3.726a4.254,4.254,0,0,1-1.3.186c-.251-.214-.29-.643-.652-.745-2.89.152-4.18,1.907-6.148,2.981a1.312,1.312,0,0,0-1.584-.279,3.447,3.447,0,0,0-1.3-2.236c-1.113-.435-1.847.523-2.608.652a7.248,7.248,0,0,1-2.608-.466c-1.418,1.038-3.986-.089-5.31,1.117a3.758,3.758,0,0,0-2.888-1.4,3.442,3.442,0,0,0-.279,2.329c.085.362.483.648.559,1.025.159.791-.168,1.676,0,2.422.081.363.481.661.559,1.025.207.958-.108,2.043,0,2.981a32.57,32.57,0,0,0,.745,3.26c.531,2.262,1.446,4.169,1.863,6.148a20.846,20.846,0,0,0,.652,3.447c.164.388.621.633.745,1.025.089.277-.016.657.093.928.189.471.815.837.838,1.3.044.857-.922,1.456-.838,2.422.071.8.72,1.162.838,1.77a5.562,5.562,0,0,1,0,1.677c-.076.42-.514.692-.559,1.214a7.829,7.829,0,0,0,.279,1.4c.16,1.492-.118,3.225,0,5.03a33.687,33.687,0,0,1-3.356,2.7,10.047,10.047,0,0,0-4.844,1.118,14.449,14.449,0,0,0-2.516,1.77c-.7.714-1.041,1.811-1.677,2.608-1.2,1.509-2.8,2.991-3.447,4.844.036.367.511.3.559.652-.186,2.732,3.562,1.53,4.284,3.356h1.117c.563.835.513,2.281,2.142,2.049.561,1.289,1.231,2.159,1.025,3.54-.085.571-.731,1.071-.928,1.769-.121.424,0,.892-.093,1.3-.166.735-.643,1.2-.559,1.956.05.45.618.764.373,1.3-.449.421-1.1.638-1.491,1.118.209,2.133-1.005,4.731-.279,6.614a2.205,2.205,0,0,0,2.608,1.117c.18-1.013-.428-1.975-.559-2.981,1.2-1.42,3.423-.262,5.123-.093.329.509.376,1.3.928,1.584,1.439.1,1.827-.618,2.7-1.3.524-.411,1.09-.847,1.584-1.214,1.093-.806,2.731-1.571,3.168-2.422.345-.67.2-1.423.466-2.049a4.8,4.8,0,0,1,1.77-2.049,14.956,14.956,0,0,1,5.123-.093c.428.066.758.361,1.118.373.446.014.922-.243,1.4-.279,1.044-.079,2.224.134,3.074,0,1.428-.224,2.651-1.227,4.006-1.49a1.857,1.857,0,0,0,1.49,0c1.867,1.8,6.268,1.06,9.5,1.49a8.47,8.47,0,0,1,.928-.373,13.03,13.03,0,0,0,5.869,1.025c.714.368.669,1.275,1.49,1.677,1.29.631,3.389.071,4.937.28.01.518-.071,1.13.186,1.4,1.2.155,2.693-.151,4.1-.094.941.446,1.877.868,2.888,1.3.857.371,2.121,1.23,2.981,1.214.7-.016,1.357-.772,2.142-.838a9.233,9.233,0,0,1,2.515.466,13.673,13.673,0,0,0-.093,2.795c.3.409,1.422.006,1.863.279a2.993,2.993,0,0,0-.186,1.863,30.9,30.9,0,0,0,3.819.094c.428-.16.428-.749.928-.838,1.2.42,2.785.443,3.726,1.118-.195.985-.729,1.631-.928,2.608a3.927,3.927,0,0,0,1.956,1.4c.234-.473,1.363-1.391,1.584-2.329.107-.456-.162-1.256,0-1.77.558-1.772,1.83.678,2.515.928a13.814,13.814,0,0,0,3.356-.186c.544-.915,1.134-2.285,1.956-2.608-.161,1.465,1.19,1.417,1.77,2.142.081.6-.01,1.377.373,1.677,1.156.056,1.67-1.226,2.7-1.4.895-.149,1.494.433,2.608.466a6.03,6.03,0,0,0,.928,3.633c.349.129.521-.106.838.094.078.636.447,1.285,1.117,1.118.844-.214.331-1.714.745-3.07a3.17,3.17,0,0,1,4.1-2.142c.622-1.058,1.4-3,3.075-1.584-.017,1.119,1.172,1.642,1.3,2.608.093.68-.32,1.076-.279,1.956.351.458.9.714,1.214,1.214.076,1.136.726,1.951,1.49,1.956.553,0,.794-.734,1.49-.838.563-.084.755.4,1.4.186.4-.565.521-1.4.928-1.957.407-.065.525.159.928.094.616-.563.821-1.539,1.956-1.584a15.491,15.491,0,0,1,.559,1.49,13.424,13.424,0,0,0,2.888.279c.357-.174.435-.621.745-.838.169.143.286.336.652.279.763-1.225,2.811-1.164,4.658-1.3a6.959,6.959,0,0,0,2.981,2.515c-.331,1.945.623,2.606,1.4,3.447h1.214a2.061,2.061,0,0,0,.466,1.025,10.571,10.571,0,0,0,2.236-.093c-.161-1.372,1.06-1.647,1.3-2.422.437-1.387-.389-2.464-1.118-3.356,1.182-.883-.631-2.019-.279-3.26-.148-.349-.738-.256-.928-.559-.28-1.564.857-2.214.838-4.006a1.207,1.207,0,0,0,.928-.373,3.927,3.927,0,0,0,.094-1.863,1.967,1.967,0,0,0,.559-1.956c.668-.512.7-1.533,1.4-2.049.279-.206.688-.083.928-.373a2.328,2.328,0,0,0,.279-1.4c.875-.273,1.689-.608,1.77-1.677,2.232.176,1.009-1.487.745-2.515a14.807,14.807,0,0,1,3.54-.373c.673.463,1.368,1.339,2.608.928.522-.7.458-1.351,1.118-1.77,2.049-1.3,6.756.593,8.756-.838v-2.049c-.416-.391-.959-.656-1.4-1.025a10.09,10.09,0,0,0-.093-2.142c-.963-.279-2.151-.333-2.329-1.4,1.1-.828.241-2.194.093-2.981-.126-.669.18-1.492,0-2.142-.174-.628-1-.9-.559-1.677a1.672,1.672,0,0,0,1.118-.186c.078-.914-.9-1.214-1.3-1.769-.579-.793-.749-1.822-1.4-2.608,1.942-.409,1.39-3.759.279-4.658v-.928c-1.342-.428-2.856-.683-3.356-1.957a3.059,3.059,0,0,0-.466-1.77c-.343-.486-1.491-.871-1.49-1.3s1.122-.577.838-1.491a2.422,2.422,0,0,0,1.214-.652,3.493,3.493,0,0,1,.279-3.26,17.6,17.6,0,0,0,2.608.186c.532-.118.61-.633,1.025-.559a4.31,4.31,0,0,0,2.516.466,8.037,8.037,0,0,0,.373,2.142,5.938,5.938,0,0,0,1.677.093c.555.973,2.094.928,2.981.279.741.237,1.443.817,2.236.652.253-.052.551-.654,1.025-.838.693-.27.875-.276,1.025-.838h1.117c.442-.552.674-1.313,1.118-1.863h.838c.546-1.081,2.346-2.785,1.025-4.006.928-.116,1.754.248,2.515,0,.245-.159.094-.714.279-.928.878-.054,2.071.2,2.236-.559-.361-.912-.2-3.151-.373-4.565a1.8,1.8,0,0,0-1.214,0,1.364,1.364,0,0,0-.373-.928,1.857,1.857,0,0,0-1.3.094c-.888-1.441-3.576-1.082-3.168-3.819.466-.628,1.52-.571,1.584-1.4.077-1.006-1.749-2.249-2.888-1.584-.4-1.406-2.094-1.092-3.447-1.77-.554-.278-1.142-1.071-1.677-1.117a6.456,6.456,0,0,0-2.236.652c-.723.258-1.357.6-2.049.838a12.678,12.678,0,0,0-1.584-.745c.768-2.158,1.758-5.7.559-7.918-.441-.071-.643.1-1.025.093-.259-.393-.2-1.105-.745-1.214-1.166.357-1.678-.847-2.515-1.025-.331-.071-.746.109-1.118,0-.793-.232-1.465-1.357-2.236-1.863s-1.449-.481-1.956-1.118c-.4-1.22.057-2.428-.466-3.54-.266-.566-.947-.72-1.118-1.214-.1-.286.061-.681,0-.928-.307-1.256-2.038-1.557-3.074-2.049-.049-1.944,2.37-3.087,1.3-4.844a8.415,8.415,0,0,1-2.981-.373V53.878c-.988-1.435-2.8-2.039-4.379-2.888a2.6,2.6,0,0,1,1.118-2.142c-.079-.635-.136-1.292-.186-1.956a2.25,2.25,0,0,0,1.956-2.7c.333.051.912.208,1.214,0,.276-1.2-.561-2.076-.559-3.074,0-.379.268-.729.186-1.117-.164-.782-1.483-1.2-1.863-2.142-.244-.6.026-.924-.373-1.584a3.05,3.05,0,0,1-1.3-.466c-1-2.064,2.441-2.445,2.142-4.192-.1-.595-.656-.539-.838-1.214.829-.96.016-2.96.279-4.751-.737-1.609-2.571-.691-3.356-.093-.226-.613-.188-1.49-.559-1.956a5.716,5.716,0,0,0-1.584-.093c-.449-.3-.308-1.182-.466-1.77-.594-.428-1.434-.616-2.049-1.025a3.549,3.549,0,0,0-.093-1.214,25.355,25.355,0,0,1-5.217-2.049c-.591.086-.857,1.054-1.584,1.118-.679.059-1.437-.689-2.236-.745-1.725-.121-3.41,1.19-3.54,2.516-.543.035-.756-.3-1.118-.279a9.451,9.451,0,0,0-2.516,1.3c-.384.319-1.093,1.876-1.49,1.863a7.583,7.583,0,0,0-.559-.652c-.675-.739-1.266-1.278-1.77-1.863a6.034,6.034,0,0,0,.838-3.168c1.244.126.957-1.407.652-2.142-1.066-.551-2.511-.733-3.819-1.4-.638-.324-1.084-1-1.677-1.214-2.741-.953-4.164,1.03-5.869,1.863-.2.079.035.594-.186.652-.444.071-.6-.143-1.025-.093a3.647,3.647,0,0,1-.652-2.422c-.643-.415-.838-1.273-1.118-2.049-1.928-.487-5.18-.584-5.962,1.118C108.182,11.313,107.736,10.744,107.08,10.088Z" transform="translate(-9.174 -8.497)" fill="none" fill-rule="evenodd"/><path d="M108.758,11.853c.782-1.7,4.036-1.605,5.962-1.118a3.79,3.79,0,0,0,1.118,2.049,3.647,3.647,0,0,0,.652,2.422c.428-.053.581.165,1.025.093.221-.058-.014-.571.186-.652,1.705-.833,3.129-2.816,5.869-1.863.593.206,1.038.887,1.677,1.214,1.308.663,2.753.847,3.819,1.4.3.735.592,2.269-.652,2.142a6.036,6.036,0,0,1-.838,3.168c.5.586,1.1,1.125,1.77,1.863a7.662,7.662,0,0,1,.559.652c.4.013,1.106-1.544,1.49-1.863a9.441,9.441,0,0,1,2.516-1.3c.362-.025.571.314,1.118.279.129-1.325,1.814-2.637,3.54-2.516.8.056,1.557.8,2.236.745.73-.064.993-1.033,1.584-1.118a25.153,25.153,0,0,0,5.217,2.049,3.555,3.555,0,0,1,.093,1.214c.616.409,1.455.594,2.049,1.025.158.588.016,1.474.466,1.77a5.725,5.725,0,0,1,1.584.093c.371.467.333,1.344.559,1.956.785-.6,2.616-1.516,3.356.093-.264,1.79.55,3.79-.279,4.751.183.672.737.617.838,1.214.3,1.747-3.148,2.129-2.142,4.192a3.052,3.052,0,0,0,1.3.466c.4.66.129.979.373,1.584.38.942,1.7,1.361,1.863,2.142.081.388-.186.739-.186,1.117,0,1,.836,1.873.559,3.074-.3.209-.878.051-1.214,0a2.249,2.249,0,0,1-1.956,2.7c.05.664.107,1.321.186,1.956a2.6,2.6,0,0,0-1.118,2.142c1.571.848,3.39,1.453,4.379,2.888v1.214a8.4,8.4,0,0,0,2.981.373c1.066,1.757-1.352,2.9-1.3,4.844,1.036.492,2.768.793,3.074,2.049.061.25-.1.646,0,.928.171.491.852.643,1.118,1.214.523,1.113.064,2.32.466,3.54.507.636,1.2.62,1.956,1.118s1.443,1.632,2.236,1.863c.371.109.785-.071,1.118,0,.837.178,1.349,1.385,2.515,1.025.546.106.486.818.745,1.214.384.011.583-.162,1.025-.093,1.2,2.214.209,5.76-.559,7.918a12.61,12.61,0,0,1,1.584.745c.7-.234,1.327-.58,2.049-.838a6.457,6.457,0,0,1,2.236-.652c.531.05,1.122.84,1.677,1.117,1.357.678,3.05.363,3.447,1.77,1.143-.665,2.965.578,2.888,1.584-.064.823-1.118.77-1.584,1.4-.408,2.738,2.279,2.379,3.168,3.819a1.857,1.857,0,0,1,1.3-.094,1.364,1.364,0,0,1,.373.928,1.8,1.8,0,0,1,1.214,0c.171,1.414.011,3.653.373,4.565-.169.763-1.357.5-2.236.559-.186.218-.034.773-.279.928-.76.248-1.589-.116-2.515,0,1.32,1.222-.479,2.928-1.025,4.006h-.838c-.444.55-.676,1.311-1.118,1.863h-1.117c-.15.562-.331.571-1.025.838-.474.185-.771.785-1.025.838-.793.165-1.495-.415-2.236-.652-.887.65-2.428.693-2.981-.28a5.927,5.927,0,0,1-1.677-.093,8.066,8.066,0,0,1-.373-2.142,4.31,4.31,0,0,1-2.516-.466c-.415-.071-.493.441-1.025.559a17.7,17.7,0,0,1-2.608-.186,3.475,3.475,0,0,0-.279,3.26,2.421,2.421,0,0,1-1.214.652c.286.913-.838,1.071-.838,1.491s1.148.819,1.49,1.3a3.058,3.058,0,0,1,.466,1.77c.5,1.273,2.011,1.528,3.356,1.957v.928c1.11.9,1.662,4.249-.279,4.658.648.785.818,1.816,1.4,2.608.4.553,1.382.857,1.3,1.769a1.674,1.674,0,0,1-1.118.186c-.437.775.386,1.049.559,1.677.18.651-.126,1.474,0,2.142.149.785,1.01,2.153-.093,2.981.178,1.064,1.366,1.118,2.329,1.4a10.089,10.089,0,0,1,.093,2.142c.438.369.981.634,1.4,1.025v2.049c-2,1.432-6.708-.465-8.756.838-.659.419-.6,1.071-1.118,1.77-1.24.407-1.935-.468-2.608-.928a14.82,14.82,0,0,0-3.54.373c.264,1.028,1.487,2.691-.745,2.515-.081,1.071-.894,1.4-1.77,1.677a2.328,2.328,0,0,1-.279,1.4c-.243.29-.652.166-.928.373-.7.517-.729,1.537-1.4,2.049a1.967,1.967,0,0,1-.559,1.957,3.927,3.927,0,0,1-.094,1.863,1.207,1.207,0,0,1-.928.373c.021,1.791-1.117,2.441-.838,4.006.193.3.785.21.928.559-.351,1.24,1.462,2.377.279,3.26.729.89,1.554,1.967,1.118,3.356-.244.775-1.465,1.05-1.3,2.422a10.573,10.573,0,0,1-2.236.093,2.062,2.062,0,0,1-.466-1.025h-1.214c-.774-.84-1.727-1.5-1.4-3.447a6.959,6.959,0,0,1-2.981-2.515c-1.847.143-3.9.079-4.658,1.3-.367.056-.484-.137-.652-.279-.311.214-.391.665-.745.838a13.426,13.426,0,0,1-2.888-.279,15.491,15.491,0,0,0-.559-1.49c-1.135.045-1.34,1.02-1.956,1.584-.407.066-.525-.159-.928-.094-.41.553-.534,1.392-.928,1.956-.643.214-.835-.271-1.4-.186-.7.1-.938.842-1.49.838-.764-.005-1.415-.82-1.49-1.957-.307-.5-.861-.753-1.214-1.214-.041-.88.372-1.276.28-1.956-.132-.966-1.321-1.49-1.3-2.608-1.674-1.414-2.453.526-3.075,1.584a3.17,3.17,0,0,0-4.1,2.142c-.414,1.357.1,2.861-.745,3.07-.671.169-1.04-.481-1.117-1.118-.318-.2-.49.036-.838-.094a6.03,6.03,0,0,1-.928-3.633c-1.115-.032-1.714-.615-2.608-.466-1.032.171-1.546,1.454-2.7,1.4-.383-.3-.292-1.071-.373-1.677-.579-.725-1.928-.677-1.77-2.142-.822.327-1.412,1.693-1.957,2.608a13.836,13.836,0,0,1-3.356.186c-.685-.253-1.958-2.7-2.515-.928-.162.514.107,1.313,0,1.77-.221.938-1.35,1.857-1.584,2.329a3.927,3.927,0,0,1-1.957-1.4c.2-.978.736-1.624.928-2.608-.94-.674-2.531-.7-3.726-1.118-.5.089-.5.679-.928.838a30.91,30.91,0,0,1-3.819-.094,2.993,2.993,0,0,1,.186-1.863c-.441-.273-1.559.13-1.863-.279a13.657,13.657,0,0,1,.093-2.795,9.182,9.182,0,0,0-2.515-.466c-.785.067-1.441.823-2.142.838-.857.019-2.123-.84-2.981-1.214-1.01-.436-1.946-.857-2.888-1.3-1.407-.058-2.9.248-4.1.094-.261-.268-.176-.88-.186-1.4-1.548-.211-3.647.352-4.937-.28-.821-.4-.777-1.308-1.49-1.677a13.045,13.045,0,0,1-5.869-1.025,8.463,8.463,0,0,0-.928.373c-3.234-.428-7.635.306-9.5-1.49a1.857,1.857,0,0,1-1.49,0c-1.357.263-2.576,1.267-4.006,1.49-.85.134-2.03-.079-3.074,0-.476.036-.951.293-1.4.279-.357-.011-.69-.307-1.118-.373a14.955,14.955,0,0,0-5.123.093,4.8,4.8,0,0,0-1.77,2.049c-.268.627-.121,1.379-.466,2.049-.436.848-2.071,1.615-3.168,2.422-.493.364-1.06.8-1.584,1.214-.875.686-1.262,1.4-2.7,1.3-.556-.286-.6-1.071-.928-1.584-1.7-.169-3.927-1.327-5.123.093.131,1.006.739,1.968.559,2.981a2.2,2.2,0,0,1-2.608-1.117c-.725-1.884.488-4.481.279-6.614.39-.48,1.042-.7,1.491-1.118.245-.54-.323-.857-.373-1.3-.084-.755.393-1.222.559-1.957.094-.413-.029-.88.093-1.3.2-.7.847-1.2.928-1.769.206-1.381-.464-2.251-1.025-3.54-1.629.231-1.58-1.214-2.142-2.049h-1.13c-.723-1.823-4.471-.621-4.284-3.356-.049-.357-.523-.286-.559-.652.648-1.857,2.244-3.335,3.447-4.844.636-.8.981-1.891,1.677-2.608a14.431,14.431,0,0,1,2.516-1.77,10.05,10.05,0,0,1,4.844-1.118,33.687,33.687,0,0,0,3.356-2.7c-.118-1.8.16-3.537,0-5.03a7.791,7.791,0,0,1-.279-1.4c.045-.519.482-.791.559-1.214a5.562,5.562,0,0,0,0-1.677c-.118-.608-.77-.97-.838-1.77-.084-.966.882-1.565.838-2.422-.024-.467-.65-.833-.838-1.3-.11-.274,0-.654-.093-.928-.124-.391-.581-.636-.745-1.025a20.786,20.786,0,0,1-.652-3.447c-.417-1.979-1.332-3.887-1.863-6.148a32.555,32.555,0,0,1-.745-3.26c-.108-.938.207-2.023,0-2.981-.079-.363-.477-.661-.559-1.025-.168-.746.159-1.631,0-2.422-.076-.377-.474-.663-.559-1.025a3.445,3.445,0,0,1,.279-2.329,3.758,3.758,0,0,1,2.888,1.4c1.324-1.207,3.892-.081,5.31-1.117a7.218,7.218,0,0,0,2.608.466c.761-.129,1.5-1.087,2.608-.652a3.447,3.447,0,0,1,1.3,2.236,1.312,1.312,0,0,1,1.584.279c1.969-1.075,3.257-2.828,6.148-2.981.362.1.4.531.652.745a4.255,4.255,0,0,0,1.3-.186c.476-1.478-.3-2.4-.466-3.726a4.53,4.53,0,0,0,1.117-1.3c1.552-.307,3.1-.447,3.819.652a5.07,5.07,0,0,0,3.168-4.1c1.384-.221,1.884.8,3.26.373.732-.229.872-1.307,1.49-1.4.8-.117,1.2.5,1.491,1.3.561.321,1.519,1.485.279,1.77.357.881-.807.97-.279,1.77.428.409,1.472.2,2.049.466a1.761,1.761,0,0,1,1.77-.559,3.268,3.268,0,0,1,.466-2.422c-.26-.517-.525-1.028-1.214-1.118a2.883,2.883,0,0,1-.186-1.025,3.533,3.533,0,0,1-2.888.279c-.583-2.047.617-3.106,1.49-4.006-.335-2.508.571-3.774,2.329-4.192.76-1.8-1.26-3.327,0-4.751-.766-1.082-.391-3.235,1.025-3.26V48.74c.73-.76,1.69-1.291,1.956-2.516,2.249-.363,3.336.176,4.751-.838a5.712,5.712,0,0,0,1.584-2.142c.411-1.259.038-2.9,1.4-3.168.753-.151,1.42.436,2.236.559.535-.055.647-.533,1.118-.652A8.919,8.919,0,0,1,77.924,41.1c.078-1.768.2-2.886,1.584-3.633.648-.349,1.991-.272,1.584-1.214-.7-.445-1.973-.325-2.516-.928a3.374,3.374,0,0,1-3.54-.559c.341-1.345.666-3.488,1.863-4.284-.654-1.618.447-2.755,1.117-3.633V23.587a4.627,4.627,0,0,1,1.4-1.025,14.877,14.877,0,0,1,1.3.745c.6-.235,1.167-.511,1.77-.745a9.59,9.59,0,0,1,2.7-3.819c1.33.306,1.659-.361,2.7-.279a2.85,2.85,0,0,1,1.3.745c.189.139,1.077.928,1.118.928.343,0,.714-.913,1.214-.928.586-.023.515.341,1.118.745,1.078.071,2.071.23,3.074.373.621-.994.391-2.839.652-4.192.785-.7,1.771-1.21,2.608-1.863V13.058c.519-.629,1.447-.85,2.049-1.4.164-.593.143-1.142.466-1.491.519-.558,1.342-.238,2.049-.466.6-.194,1.054-1.2,1.677-1.214.586-.006,1.52,1.24,1.863,1.584C107.738,10.737,108.184,11.306,108.758,11.853Zm.093,1.117c-.886.035-2.785-3.19-3.726-3.447-.524.873-1.617,1.177-2.981,1.214-.071,1.6-1.237,2.116-2.329,2.7v1.214a15.638,15.638,0,0,1-2.608,1.863c-.226,1.667-.047,3.741-1.025,4.658-1.318-.153-3.724.006-4.565-.928-.551.194-.705.785-1.3.928-.864-.564-1.58-1.277-2.422-1.863a5.013,5.013,0,0,1-2.422.373,8.174,8.174,0,0,0-2.236,3.447,15.51,15.51,0,0,1-2.608,1.117c-.541-.111-.724-.58-1.3-.652-1,.845-.11,2.093-.373,3.26-.24,1.065-1.512,1.617-1.4,2.7.071.4.436.5.373,1.025-.28.608-1.03.834-1.3,1.584-.26.71-.122,1.627-.745,2.142a2.709,2.709,0,0,0,2.7.093c.864.253,1.285.948,2.608.745a1.694,1.694,0,0,1,.556,2.413c-.619.722-2.646.556-2.795,1.584.1,1.624.006,2.975-1.214,2.888-.722-.051-1.13-1.038-1.956-1.117-.68,1.125-2.193.286-3.26,0-.97.861-.509,3.155-1.584,3.912.586.222,1.2.416,1.025,1.4,1.2.111,1.357-1.243,2.329-1.214.41.014.76.649,1.214.745.785.168,1.6-.428,2.142.279.546-1.137,2.257-.428,2.981.093a4.371,4.371,0,0,1,2.888-.652c.362.088.548.581,1.025.745.591.2.96.018,1.584.093a2.134,2.134,0,0,1,1.025-1.77,2.373,2.373,0,0,1,.928.559c1.235-.5,2.272-.357,2.516.928-.106.357-.4.53-.466.928.731.728.916,2.179,2.515,1.77.82.981,2.111,1.492,2.236,3.168a10.316,10.316,0,0,1,2.981.838c.161.487-.143,1.1-.093,1.77.412.488.5,1.3,1.4,1.3.049.261.137.484.186.745a36.1,36.1,0,0,0,5.31.093c.6-.608,1.826-.6,2.888-.745a24.856,24.856,0,0,1,2.142,2.516c.086.38.167.765.559.838.816-.86.857-2.5,1.677-3.356a2.428,2.428,0,0,1,2.142.279c.286-.242.3-.75.838-.745,1.357.4.608,1.547.559,2.516.79.5,2.266-.248,2.981.559.733-.075.428-1.185.838-1.584a6.906,6.906,0,0,0,4.663-1.013c.441.745,1.7-.109,2.049.928v1.214c1.225.164,1.77-.675,2.795-.186.618-.289.491-1.1,1.214-1.117,1.377-.028.963,2.209,0,2.7a1.037,1.037,0,0,1,.186.745c-.839.807-.493,2.8-.559,4.379-.2.563-.954.79-.928,1.214.02.378.847.408.745,1.025-.226.791-1.689,1.545-.559,2.329.91-.362,1.172-1.375,2.142-1.677.251-.494.243-1.247.838-1.4,1.078.768,2.833.486,4.379.279.115-.035-.143-.681.186-.745a3.981,3.981,0,0,1,1.4-.186,13.38,13.38,0,0,1,.652,1.49c1.064-.34,1.16.643,1.677.559.269-.52-.156-1.146-.186-1.677.483-.448.777-1.087,1.491-1.3.481.171.778.526,1.3.652.016-.294.066-.556.373-.559,1.26.387,1.4-.563,2.515-.559.277.73-.293,1.37-.279,2.142,1.461.312,1.339-.959,2.049-1.4.831.473,1.053,1.555,2.142,1.77.352-.143.58-.413.928-.559.071-.813-.152-1.339-.093-2.142a2.53,2.53,0,0,1,1.214-.466c.059-.313.066-.679.279-.838,1.248-.513,2.2.5,3.819.186a2.311,2.311,0,0,1,3.074-.279c-.081-.8.592-.836,1.025-1.118-1.544-1.37.366-3.813,1.025-5.03-1.264-.1-2.765.032-3.356-.745.843-3-4.131-2.856-4.471-4.284a3.56,3.56,0,0,1,1.118-2.795,10.632,10.632,0,0,1-.093-2.049c1.472-.529,2.329-1.1,1.677-2.981.28-.454,1.163.064,1.49-.186a4.59,4.59,0,0,1-.466-2.981c-.724-1.015-1.983-1.495-1.956-3.26-2.428-.1-1.714-3.418-.466-4.284a1.67,1.67,0,0,0,1.118-.928,1.642,1.642,0,0,1-.466-2.422c-.682-.733.7-3.587-.652-3.819-.953-.164-1.132,1.5-2.515.838-.428-.476-.386-1.416-.652-2.049-1.576.179-2.253-.542-2.142-2.049-.691-.4-1.624-.549-2.142-1.117v-1.03c-1.479-.571-3.334-.765-4.379-1.77-.538.341-.745,1.035-1.4,1.117-.785.1-1.659-.8-2.608-.838-1.19-.051-1.49.692-2.516,1.214-.017.6.135,1.377-.373,1.49a13.19,13.19,0,0,1-1.677-.373c-.536.529-1.153.466-1.77.928-.81.612-1.28,2.381-2.236,2.329-.453-.025-1.276-1.163-1.677-1.584s-1.4-1.108-1.49-1.77c-.181-1.335,1.329-2.169.838-3.819.065-.463.9-.155.838-.745-.828-.841-2.9-1.163-4.006-1.863-.428-.274-.753-.714-1.118-.838-2.421-.846-3.16.958-4.844,1.49a1.674,1.674,0,0,1-.186,1.118,8.518,8.518,0,0,1-2.329-.279A4.213,4.213,0,0,1,115,13.153a2.229,2.229,0,0,1-.928-1.677,11.208,11.208,0,0,0-4.006.093c-.553.443-.476,1.37-1.219,1.4ZM70.471,45.388c-.852,1.477-3.091,1.567-5.31,1.677-.308,1.554-2.233,1.493-1.677,3.912-.451.483-1.2.348-1.4.928-.309.934.968,2.222-.093,2.981.9,1.575,1.113,4.918-1.3,4.937a2.346,2.346,0,0,1-.466.652c.763,3.317-1.793,3.106-1.677,5.5,1.222.166,1.676-.436,2.608-.559.434.156.318.862.466,1.3.857.286,1.089,1.209,1.4,2.049-.586.563-.63,1.668-.559,2.888-.406.6-1.015.035-1.584.186-.333.089-.468.491-.838.559-.785.143-1.6-.357-2.608-.279a4.321,4.321,0,0,1-.745-1.77c.682-.513-.047-1.441.928-1.77-.608-.2-.623-.991-1.025-1.4-.66.1-.571,1.071-1.3,1.3a5.36,5.36,0,0,1-3.168-.373c-.039,1.844-1.592,3.17-2.795,3.819-1.374.742-1.653-.032-2.516-.652a11.561,11.561,0,0,1-1.863.279c.049.577-.391.664-.559,1.025a5.27,5.27,0,0,1,.373,3.726,5.5,5.5,0,0,1-2.516.559,1.077,1.077,0,0,1-.559-.745,2.952,2.952,0,0,0-1.77.559c-.268.131-.622.165-.838.279-1.183.628-2.142,1.972-3.074,2.049-.754.063-1.357-.564-2.329-.373-.468-.795-.434-1.962-1.3-2.142-.742-.154-1.044.614-1.863.745-1.122.179-1.771-.365-2.795-.466-1.152.693-2.606.42-4.006.466-1.357,1.347-2.374-.312-3.54-.745-.006,1.683.765,2.589.466,4.565.928.868.486,2.983.652,4.471.1.941.521,1.969.745,2.981.73,3.285,2.014,6.034,2.422,9.315a2.566,2.566,0,0,1,.838,2.049c1.91,1.117-.018,2.82.093,4.006.063.668.653,1.11.745,1.584a6.451,6.451,0,0,1,.093,1.677c-.046.436-.478.775-.559,1.4-.147,1.142.478,2.527.186,4.005a10.362,10.362,0,0,0,2.329.559c.714-.26,1.079-1.188,1.77-1.118.648.066.563.921,1.3,1.118,1.125-.734,1.794.533,2.981,0,.962.516,1.207,1.515,2.888,1.118-.129-2.037.41-4.175,1.863-4.937-.251-.184-.6-.273-.559-.745a3.228,3.228,0,0,1,2.049-.838c.8.084,1.486,1.117,2.422.928.586-.3.564-1.053,1.214-1.118a2.019,2.019,0,0,1,1.584,1.118c.146.492-.415,1.169.279,1.4.643-.013.612-.692,1.3-.652.562.338.156,1.642.279,2.422.624-.634,1.445-.143,2.142-.186.411-.027.73-.428,1.118-.373.511.071.578.789,1.117.745-.643-.78.1-1.411-.373-2.329.25-1.077,1.35-.466,2.142-.745a7.865,7.865,0,0,0,.928-1.957c1.8-.346,1.961-2.324,2.7-3.727-.714-.589-.909-2.166.093-2.608-.518-.324-.494-1.013-.373-1.77a1.241,1.241,0,0,1,1.025-.373,6.482,6.482,0,0,1,2.049-3.912,1.979,1.979,0,0,0,1.584.093c.31.424.883.116,1.4.279.314.1.493.465.838.559,1.331.363,3.682.059,5.31.373a12.713,12.713,0,0,0,1.863.559,9.8,9.8,0,0,0,2.329-.745,17.94,17.94,0,0,0,2.236-.838c-.562-.488-.254-1.487-.186-2.329-1.1.021-1.039-1.036-.466-1.584a5.609,5.609,0,0,1-.745-2.516c-.943-.733-2.832-.522-2.516-2.516-1.26-.089-1.809-1.339-1.4-2.795.164-.209.714-.029.745-.373-.344-.432-1.159-.393-1.4-.928.064-.654-.158-1.023-.093-1.677a15.379,15.379,0,0,1,2.516-.928c.357-.728.376-1.8,1.677-1.584v-.932c-.918.192-1.19-.221-1.584-.745-.233-.326.138-1.255-.559-1.117-.039.49-1.346.516-2.142.559a4.753,4.753,0,0,1-.28-3.074c-.345-.168-.485.281-.928.279a1.452,1.452,0,0,1-1.214-.745,7.377,7.377,0,0,1,1.4-2.236c.993.152,1.259-.913,2.049-1.025.428-.061.748.266,1.214.279.687.021,1.265-.4,2.049-.373.293-.735,1.051-1.039,1.491-1.863.68-1.275.75-3.1,1.4-4.1.2-.313.563-.326.652-.652.2-.727-.181-1.222-.28-1.77.785-.458.851-1.633,1.677-2.049a1.018,1.018,0,0,1-.093-1.025c-.395-.071-.816-.116-1.214-.186-.511-1.117-1.465-2.139-1.117-3.819-.955-.5-1.3-1.622-1.956-2.422-1.7-.22-1.869-1.981-2.142-3.633-.228-.176-.8,0-.928-.279.071-.441-.1-.643-.093-1.025-.325-.015-.412-.269-.74-.282Zm16.116,1.584a6.654,6.654,0,0,1-2.516-.093c-.339-.129-.465-.561-.838-.652-1.254-.3-2.09.693-2.795.652-.582-.034-1.008-.875-1.77-.745-.457.078-.467.632-1.025.652-.779-.68-2.928.011-3.356-1.025-.5.374-1.126.613-1.4,1.214.362,1.253.293,2.935,1.863,2.981.594.525.928,1.664,1.49,2.236.377.382.7.174.838.652.112.4-.24.9-.186,1.3.106.814.844,1.214.928,2.049.558.156,1.388.041,1.584.559A2.081,2.081,0,0,0,79.5,58.34c-.758.453-1.038,1.385-1.584,2.049.317.366.143,1.224.186,1.863-1.329.87-1.357,3.07-2.142,4.658A7.75,7.75,0,0,1,74,69.146a5.105,5.105,0,0,1-3.356.093c-.593.37-.836,1.089-1.863,1.025-.149.458-.973,1.179-.652,1.49.393.357.436-.428.928-.279.271.256.886.17.928.652a7.294,7.294,0,0,0-.093,2.516h.838c.143-.26.126-.68.466-.745,1.235.071,1.657.951,1.863,2.049.286.127,1.1-.154,1.49.093a5.689,5.689,0,0,1-.279,2.236c-.384-.011-.583.162-1.025.093-.295.451-.353,1.137-.745,1.49-.79.143-1.392.471-2.142.652v1.025c.663.424,1.742.432,1.49,1.77a1.2,1.2,0,0,1-.838.279c.037.441-.166.643-.093,1.117.378.367,1.034.456,1.49.745.188.278.053.879.093,1.3.611.663,2.126.563,2.516,1.584.061.16-.043.566,0,.838.168,1.065,1.153,1.781.373,2.609a.85.85,0,0,1,.838.559,4.713,4.713,0,0,0,.186,2.888c-.9.683-2.3.869-3.447,1.3-.273,1.48.706,2.61.093,3.819-.813.118-1.778.086-1.956.838.424.911.928,1.739,1.3,2.7H73.9a5.284,5.284,0,0,1,1.584,2.516c-.3.286-1.019.161-1.584.186a17.327,17.327,0,0,0-1.4,1.956c.428,1.034.915,2,1.3,3.074-.1.571-1.135.646-.466,1.214.345.126.619-.621,1.4-.373.121-2.1,3.07-.935,3.074.559a2.285,2.285,0,0,1,2.329,1.863,7.824,7.824,0,0,1,2.888,1.025c.274-.129.353-.455.745-.466,1.237.16,1,1.792,1.49,2.7.72.086,1.413.2,2.142.279,1.368,1.757-.128,3.06-2.422,2.7a1.638,1.638,0,0,1,.186,1.957c.418.79,1.737,1.023,1.956,1.957.126.536-.266,1.125-.093,1.956a13.6,13.6,0,0,0,1.956.838,3.12,3.12,0,0,0,.928-3.074c.707-.256.933-.993,1.3-1.584.386-.192,1.23-.143,1.4.186a3.989,3.989,0,0,1,1.4-.838c.331.041.368.378.559.559.74-.518,1.532.428,1.3,1.49a12.216,12.216,0,0,1,1.491,1.118c1.972-.121,3.129.535,4.565-.186-.08-.571-.077-1.227-.186-1.77,1.078-1.152,3.611-.136,4.005,1.118.837-.343,2.234-.126,3.356-.186.346-.544,1.182-.707,1.4-1.49.265-.965-.236-2.285,0-3.26.2-.828.864-.875,1.025-1.584-1.12-.836-2.55-1.363-3.356-2.516,1.414-1.6,3.039-2.985,3.727-5.31-.994-.708-.222-2.763.928-2.981.261-1.642-.758-2.293-.279-3.633a2.585,2.585,0,0,1-2.329.186c-.238-.289.052-1.107-.186-1.4-.42-.022-.478.412-1.025.466-1.041.1-2.469-.682-2.608-1.583-.443-.085-.845-.214-1.3-.28a4.356,4.356,0,0,1-.652-1.956,4.666,4.666,0,0,1,1.77-1.025c.648.253.806.995,1.4,1.3a9.682,9.682,0,0,1,2.142-.093c.264-.571,1.221-.456,1.677-.838-.428-.746-1.687-.512-1.863-1.3-.184-.825,1.281-2.1.652-3.726a10.123,10.123,0,0,1,1.4-1.863c1.316.071,1.6-.88,2.422-1.3-.085-.35-.214-.659-.279-1.025.341-.28.428-.814.928-.928,1.257.487,2.178,1.195,3.819.652.84.588.961,1.9,1.956,2.329-.681-2.045,1.147-1.733,2.236-2.236a8.773,8.773,0,0,1-.186-1.4,1.917,1.917,0,0,1,2.981-.559,21.225,21.225,0,0,1,3.819-2.142c-.031-.436-.483-.448-.466-.928.292-.484.886-.666,1.214-1.117-1.175.057-1.377-.857-1.957-1.4-.148-1.1.116-2.672-.093-3.912-.1-.6-.428-.864-.373-1.3.121-.9,1.02-1.321,1.3-2.049-.014-.357-.315-.428-.28-.838.056-.348.428-.379.466-.745-.2-1.225.3-1.754.373-2.7-.265-.357-.908-.334-1.4-.466a7.617,7.617,0,0,1-.466-1.584c.281-.526.745-.87,1.025-1.4-.172-.2-.76-.518-.745-1.025.014-.454.785-.824.928-1.4.226-.91-.193-2.258,0-3.168.116-.548.509-.643.559-1.118-.014-.357-.315-.428-.279-.838.286-.584,1.1-.638,1.025-1.584-.65.095-.578.913-1.214,1.025-1.188-.587-2.571.746-3.633-.186-.243-.316.056-1.174-.186-1.49a1.03,1.03,0,0,1-1.491-.186,4.733,4.733,0,0,1-3.912.838c.093,1.148-.66,1.451-1.491,1.677-.668-.781-2.166-.166-3.168-.559-.673-.714-.269-1.714-.093-2.329-.4-.149-.451.768-1.025.745-.508-.344-.838-.882-1.77-.559-.543,1.2-.752,2.726-1.677,3.54a4.025,4.025,0,0,1-1.4-.745,4.889,4.889,0,0,0-1.956-2.7c-.833-.2-1.619.379-2.329.745-2.076-.143-4.076.357-6.148-.279a1.741,1.741,0,0,1-.093-.745c-.343-.061-.733-.071-.928-.279-.3-1.013-.97-1.594-.466-2.981-.975-.329-2.337-.271-2.981-.928.095-.873-.387-1.247-.838-1.77-.665-.771-.9-1.1-2.142-.928a14.438,14.438,0,0,1-1.956-2.516c.036-.526.685-.714.466-1.214-.591-.579-1.942.563-2.516-.373-.409.294-.322,1.123-.625,1.565Zm83.187,24.872h-1.3c-.795-.393-1.33-1.293-2.329-1.956-.69-.458-2-.663-2.329-1.491-.371-.935-.1-2.036-.373-3.356-.207-.441-.988-.714-1.214-1.4-.1-.3.071-.648,0-.928-.318-1.285-1.592-1.326-2.7-.466.006.441.048.917-.279,1.025-.837.1-1.167-.714-1.956-.652-.531.04-.973.714-1.584.838-1.256.256-1.928-.251-3.26-.373-.01.8-.7.914-1.3,1.117-.071.752.151,1.214.094,1.956a2.148,2.148,0,0,1-3.727-.279,2.027,2.027,0,0,1-2.888.652c-.071-.6.233-.823.186-1.4-.385.328-.76.253-1.4.186-.029.281.1.725-.186.745-.85-.05-1.205-.6-1.863-.838-.149.348-.58.414-.652.838a4.634,4.634,0,0,1,.28,1.677c-.214.41-.845.4-1.3.559a1.857,1.857,0,0,0-1.677-.838c-.447-.3-.165-1.325-.928-1.3-.223.256.132.606-.186.838-1.714.076-3.683.688-4.937-.093-.186,1.4-1.67,1.5-2.142,2.608.9.485.225,1.3.094,2.049-.154.875.17,1.964-.466,2.236a.865.865,0,0,1,.279.652c-.428.817-.987,1.5-1.4,2.329.722,1.043.433,3.505.559,4.844a.857.857,0,0,1,.652.745c.579.166,1.469.021,1.677.559-.211.785-1.075.912-1.49,1.49a1.5,1.5,0,0,1,.466.928c-1.56.955-3.16,1.87-4.844,2.7-.977-1.189-2.695-.154-1.863,1.49a3.584,3.584,0,0,1-2.329.838,12.6,12.6,0,0,1,.094,1.584,2.237,2.237,0,0,1-1.214.279,10.376,10.376,0,0,1-1.677-2.329c-1.5.586-2.676-.4-3.633-.559-.412.412.255.94.093,1.677-1.172.256-1.336,1.521-2.888,1.4-1.317.826-.616,3.669-1.584,4.844a4.2,4.2,0,0,1,1.77.928,3.55,3.55,0,0,1-.093,1.214c-.776-.149-1.365.585-2.049.745-.834.2-1.738-.179-2.608.186-.549-.289-.714-.961-1.3-1.214-.316.119-.538.331-.838.466a9.176,9.176,0,0,0,.373,1.118,8.443,8.443,0,0,1,1.214.186,2.54,2.54,0,0,0,2.236,1.584c.261-.3.458-.66.928-.745.495.436,1.128.735.928,1.863.966.1,1.857-1.061,2.422,0-.428,1.5.473,2.577.186,4.471-.151.191-.467.214-.838.186a4.664,4.664,0,0,1-.559,1.214c.905.823.408,1.5-.093,2.515a10.933,10.933,0,0,1-2.981,3.819c.895.286,2.111,1.818,2.981,2.049a4.784,4.784,0,0,0,2.981-.186c.428-.058.536.209.928.186.618-.686,2.022-.586,2.795-1.117-.3-.2-.8-.189-.838-.652.4-1.151,1.889-1.214,3.168-1.491.209-.722-.029-1.892.279-2.516a9.592,9.592,0,0,1,2.049-.186c.946-.762,1.432-1.983,2.422-2.7a23.979,23.979,0,0,1,3.26,1.118c.25-1.035,1.27-.908,1.77-.186.461-.162.608-.724,1.214-.928,1.152-.4,2.778.1,3.54-.093.021-.071,0-.184.093-.186-.428-1.079-2.262-1.142-1.49-2.888-.176-.414-.606-.571-.652-1.117a2.633,2.633,0,0,0,.745-1.491c.5-.061,1.24.122,1.584-.093a2.6,2.6,0,0,1,.559-2.608c-.263-.885-.6-1.7-.838-2.608.631-.475.9-1.642,1.677-1.677.728-.031.824.81,1.584,1.025,1.534-1.172,2.28-.591,3.633.373.985.7,1.934,1.127,1.956,2.329.843-.12,1.652-.273,2.516-.373a3.622,3.622,0,0,1,5.962-1.4c1.021.214,1.088-.526,1.677-.745.744.249,1.605.382,2.329.652.165-.393.271-.846.652-1.025a10.952,10.952,0,0,1,2.236.093c.548.85.214,1.642.745,2.422.368.539,1.126.559,1.4,1.118a8.616,8.616,0,0,1,.279,1.863,2.034,2.034,0,0,1,1.025-.186,1.442,1.442,0,0,1,.559.838c.445-.917,1.413-.445,2.515-.373.343-.868.308-2.114.928-2.7a16.257,16.257,0,0,1,2.888.186c.428-.194.613-.628,1.117-.745a5.507,5.507,0,0,0,3.26.652c.452.448.352,1.449.466,2.236,1.219-.486,1.726.666,2.422.745.611.071.849-.4,1.584-.559a4.975,4.975,0,0,0,2.049.652c.435-.279.412-1.016,1.3-.838a.708.708,0,0,1,.559-.745h1.025c.583-.722.481-2.127,2.049-1.863.261-.795.76-1.352,1.025-2.142a1.473,1.473,0,0,1-.279-1.863h2.515c-.022-.395.007-.738.279-.838a12.9,12.9,0,0,1,1.956-.186c-.362-.818-.114-2.246-.186-3.356-.306,0-.463.157-.838.093a2.288,2.288,0,0,1-.559-1.025c-.391-.049-.521.163-.838.186a1.756,1.756,0,0,1-.928-.928c-2.059-.364-3.1-1.74-3.074-4.192a5.863,5.863,0,0,1,1.49-1.025c-.022-1.16-1.51-.71-2.236-.745a2.318,2.318,0,0,1-.745-1.025c-.815-.3-1.473-.319-2.329-.652-.624-.243-1.243-1.071-1.863-1.117a6.243,6.243,0,0,0-2.142.745,21.006,21.006,0,0,1-2.142.745c-.473-.875-2.276-.311-2.515-1.214-.119-.447.769-1.743.928-2.608.357-1.885.66-3.292.186-4.844-.366-.053-.581.323-.838.093-.451-.263-.5-.933-.745-1.4-1.3.214-1.732-.436-2.325-.93ZM69.352,96.622c-2.214-.481-5.435,0-6.521-.928-.22,0-.274.161-.559.093a1.02,1.02,0,0,0-1.4-.186c-.371.06-.375-.246-.745-.186a9.925,9.925,0,0,0-1.49,3.54c-.186.279-.9.032-.928.466-.174.857.66.705.559,1.491-.039.306-.741.347-.838.745-.155.635.629.951.652,1.583a6.588,6.588,0,0,1-.838,1.956c-.613,1.267-.794,2.049-2.049,2.329-.467,1.136-.933,2.7-2.795,2.142.1.8-.143,1.6.373,2.236a1.56,1.56,0,0,1-1.025.928c-.546-.138-.7-.67-1.214-.838-.41.514-1.2.341-1.77.093-.623.154-.964.588-1.77.559-.332-.413-.133-1.357-.186-2.049-.214-.237-.352.388-.745.28a1.663,1.663,0,0,1-1.118-2.142c-.332-.1-.473-.4-.838-.466-.371.466-.475,1-1.025,1.118-1.225.251-2.65-1.571-3.633-.652-.121.189.631.3.466.838-.2.456-.825.479-1.214.745-.825,1.071-.983,3.038-.928,4.471a3.169,3.169,0,0,1-3.726-1.025c-.566.7-1.34-.174-1.957-.186-.423-.009-.7.357-1.117.279-.451-.084-.809-1.1-1.214-1.118-.428-.015-1.117,1.342-1.584,1.214a17.4,17.4,0,0,0-2.329-.652v2.142a23.726,23.726,0,0,1-1.863,1.584,7.648,7.648,0,0,1-2.049,1.49,17.634,17.634,0,0,1-1.77,0c-2.275.352-3.654,1.727-5.31,2.7-1.312,2.445-3.339,4.176-4.658,6.614.536.086.336.906.373,1.491.586.541,1.121.253,1.77.466.846.278,1.428,1.15,2.142,1.4.455.157,1.022-.181,1.4.279a10.139,10.139,0,0,0,.838,1.77,3.1,3.1,0,0,1,1.117.094c.624,1.351,1.6,2.642,1.4,4.379-.06.515-.659.97-.928,1.677-.45,1.167-.223,2.265-.745,3.075,1.142,1.1,0,2.733-1.118,2.981.127,2.356-.8,3.684-.279,5.962a2.9,2.9,0,0,0,.838.559c.013-.988-.685-1.437-.466-2.422.5-2.264,4.868-.964,6.614-.466.214.468.448.919.652,1.4,1.267-.42,2.091-1.474,3.074-2.236,1.015-.785,2.21-1.342,3.26-2.142.214-.65.117-1.367.373-2.049a7.223,7.223,0,0,1,2.329-2.7c.841-.229,2.6.071,4.006,0a16.489,16.489,0,0,1,2.516.279,11.092,11.092,0,0,0,1.117-.186c1.158-.095,2.531.093,3.447-.093,1.483-.3,2.683-1.266,4.006-1.491.438.339.877.063,1.4,0a13.8,13.8,0,0,1,1.863,1.118c2.481-.2,5.239.765,7.64.373.373-.061.586-.279.928-.279,1.235,0,2.428.928,3.726,1.025.972.071,1.789-.295,2.516,0,.762.309.96,1.3,1.584,1.77,1.6.374,3.652-.2,5.217.279a4.033,4.033,0,0,1,.093,1.3c3.034-.62,4.381.333,6.241,1.118,1,.421,2.3,1.222,3.074,1.214.591-.009,1.305-.673,1.956-.745a8.241,8.241,0,0,1,1.956.186c.5.066,1.242.041,1.584.558.063.995-.089,1.775-.093,2.7.7.071,1.785-.234,1.956.373-.03.622-.249,1.055-.279,1.677H91.8c.448-.328.714-.84,1.214-1.118a17.985,17.985,0,0,1,.093-2.888,7.613,7.613,0,0,1,.928-.652,12.631,12.631,0,0,1,.093-1.583c-.389-.643-1.12-.659-1.214-1.4-.1-.83,1.03-1.864.373-2.888.5-.867,1.014-1.719,1.584-2.516-.2-.691-1.17-.746-1.4-1.677a11.786,11.786,0,0,1,.466-5.217c-1.052-1-3.422-.676-3.447-2.7-.531.065-.774-.158-1.3-.094a3.157,3.157,0,0,1-.466-1.3c-.738-.518-2.134-.388-2.422-1.3-.214-.676.286-1.328.093-1.957-.333-1.075-1.654-.952-2.049-2.049a2.8,2.8,0,0,1,.466-.928,5.086,5.086,0,0,1-.652-1.677c.539-.548,2.007-.166,2.981-.279.214-.428-.063-.847-.186-1.214-.656-.121-1.394-.159-2.049-.279-.676-.411-.421-1.752-.928-2.329-.388-.31-.544.214-1.025.186-.923-.047-2.031-1.349-3.26-1.214-.357-.976-.8-1.866-2.329-1.677-.273-.193-.327-.6-.279-1.118a14.322,14.322,0,0,0-1.4-.745c-.321.269-.084,1.1-.559,1.214-1.02-.181-1.177.5-1.77.745a3.917,3.917,0,0,1-1.118-1.584c.083-.445.629-.428.745-.838-.338-1.09-.943-1.914-1.214-3.074.909-.83.938-2.539,2.7-2.516a1.78,1.78,0,0,0-2.329-1.3,16.109,16.109,0,0,1-1.863-3.633c.583-.535.982-1.255,2.236-1.118.115-1.2-.473-1.7-.279-2.981-1.048.706-1.814.038-2.885-.2Zm67.91.559c-.268.447-.714.714-.928,1.214a9.963,9.963,0,0,1,.838,2.795c-1.062.388-.58,2.064-.559,2.888-.4.25-1.5-.025-1.77.093.314.381-.253.675-.466.838a1.928,1.928,0,0,1,.373,2.049c.425.609,1.742.84,1.77,1.677.016.481-.583,1.035-1.025,1.4a4.678,4.678,0,0,0-3.168-.279c-.616.195-.983,1.116-1.49,1.118-.571,0-.514-.659-1.025-.559-.244.346-.251.928-.838.928-.6-.857-1.986-.933-2.981-1.4-1.2,1.065-1.466,3.07-4.1,2.7a19.957,19.957,0,0,1-.186,2.422c-.83.35-1.942.418-2.795.745-.064.341.679.6.559,1.3-.857.823-2.642.708-3.54,1.491-1.257-.209-2.057.3-3.633-.094-1.128.89-1.12,2.918-1.025,5.03-.683.495-1.125,1.613-2.142,1.863-1.178.29-2.515-.29-3.726.186-.461-.253-.563-.865-.838-1.3a10.024,10.024,0,0,0-1.956-.373c-.252.51.237,1.462,0,1.956-1.526,1.063-3.053.562-5.4.559-.672-.633-1.594-1.014-2.049-1.863-.071-.351.114-.446.093-.745-.38-.264-.255.638-.838.466a1.567,1.567,0,0,1-.466-.928c-.59.186-.87.682-1.49.838-.353-.02-.27-.476-.745-.373a3.844,3.844,0,0,1-1.025,1.4c.571,1.964-1.409,2.256-1.118,3.912a5.991,5.991,0,0,1,1.3.093,1.584,1.584,0,0,1,.373,1.3c1.176.625,2.678.925,3.54,1.863-.725,1.231-.559,3.356-.559,5.31.357.735,1.357.911,1.4,1.677.05.961-1.428,1.762-1.584,2.795.453.842-.233,1.78-.373,2.608,1.027.723,1.388,1.687,1.025,3.447a7.483,7.483,0,0,1-.928.652c.036,1.03-.166,1.822-.093,2.888,1.428.566,4.012.277,4.192,1.77.116.961-.785,1.437-.838,2.516.238.165.378.428.745.466a3.945,3.945,0,0,0,.838-3.26c.59-.495.86-1.435,1.677-1.4.79.037,1.117,1.488,2.236,1.77.83.209,1.228-.271,2.329-.093.7-1.292,1.285-2.688,2.981-2.981.5.185.506.857.466,1.584.819.547,1.769.963,1.863,2.236,1.005-1.535,3.6-1.09,5.4-.559.176,1.19.122,2.611.652,3.447a1.048,1.048,0,0,1,1.214.838c.13-3.016,1.445-5.311,4.751-4.844.462-1.1.873-1.947,1.863-2.049a3.009,3.009,0,0,1,2.329.928c.169.256.039.453.186.838.371.968,1.266,1.571,1.3,2.329a4.518,4.518,0,0,1-.373,1.49c1.066.394,1.1,1.817,1.77,2.608.813-.423,1.307-1.071,2.515-.652.341-.653.365-1.623,1.025-1.956.428-.052.581.165,1.025.094.269-1.159,1.472-1.385,2.7-1.584.472.335.457,1.158.745,1.677a13.512,13.512,0,0,0,1.956.093c.3-.258.254-.863.745-.928.5-.131.494.251.838.279.578-.853,3.205-1.357,4.565-1.214,1.04.111,1.182.983,1.863,1.677s1.455.565,2.049,1.214a8.857,8.857,0,0,1,.094,2.049,2.349,2.349,0,0,0,2.422,1.214,2.636,2.636,0,0,1,.279.838,3.546,3.546,0,0,0,1.025.093c-.309-1.123,1.026-1.307,1.214-2.049.34-1.357-.83-1.886-1.214-2.981.751-.888-.251-1.564-.186-2.794a1.385,1.385,0,0,1-1.025-.838c-.328-1.853.965-2.776,1.025-4.751.206-.229.635-.234.928-.373-.4-1.639.795-2.082.466-3.356.857-.975,1.06-2.6,2.608-2.888v-1.214a3.911,3.911,0,0,1,1.677-.838c.143-.418,0-1.118.373-1.3.28-.214.8-.041,1.118,0-.732-.583-.91-2.142,0-2.608a14.551,14.551,0,0,1,3.07-.28c1.415-.131,1.911.809,2.7,1.025.516-.543.428-1.152.928-1.584,1.792-1.541,5.954-.2,8.756-.745v-1.214c-1.111-.348-1.77-1.148-1.49-2.888a3.9,3.9,0,0,0-1.118-.094c-.279-.437-1.327-1.137-1.3-1.956.014-.5.633-.928.652-1.4.021-.487-.433-.838-.559-1.491-.134-.7.143-1.562,0-2.049-.109-.376-.6-.558-.652-1.025a2.043,2.043,0,0,1,.652-1.77,27.833,27.833,0,0,1-2.422-3.912c.326-.451,1.037-.516,1.491-.838.77-1.717-.877-2.336-.838-3.912-1.2-.164-2.837-.614-3.356-2.236-.155-.488.005-1.058-.373-1.584-.423-.588-1.811-1.027-1.77-1.77.036-.663,1.334-.857.928-1.863.237-.353.881-.3,1.025-.745-.328-.417-1.22-.271-1.77-.466-.2.328-.214.841-.745.838-.6-.115-.537-.892-1.117-1.025-.45.016-.822.286-1.214.093-.251-.575-.027-1.565-.279-2.329-1.375-.364-1.605-1.873-2.049-3.168h-1.385c-.2.416-.316.928-.745,1.117-.714-.249-1.562-.364-2.236-.652a2.642,2.642,0,0,1-2.329.745,3.177,3.177,0,0,0-2.516-1.214c-1.612.081-1.792,2-2.981,2.516-.91.391-1.829.139-2.795.466-.464-.281-.559-.928-.745-1.491-1-.675-1.928-1.428-2.981-2.049-1.24,1.073-2.431.915-3.26-.176Z" transform="translate(-9.176 -8.49)" fill="#fff" fill-rule="evenodd"/><path d="M329.548,15.221a11.127,11.127,0,0,1,4.006-.093,2.229,2.229,0,0,0,.928,1.677,4.213,4.213,0,0,0,.928,2.795,8.5,8.5,0,0,0,2.329.279,1.675,1.675,0,0,0,.193-1.117c1.684-.533,2.423-2.336,4.844-1.49.365.128.686.564,1.118.838,1.1.7,3.178,1.023,4.006,1.863.063.591-.773.286-.838.745.491,1.65-1.019,2.484-.838,3.819.089.662,1.085,1.345,1.49,1.77s1.224,1.559,1.677,1.584c.956.053,1.428-1.714,2.236-2.329.616-.466,1.235-.4,1.77-.928a13.132,13.132,0,0,0,1.677.373c.508-.114.357-.887.373-1.49,1.025-.519,1.325-1.262,2.516-1.214.949.041,1.822.938,2.608.838.652-.082.857-.778,1.4-1.117,1.044,1.005,2.9,1.2,4.379,1.77v1.023c.518.571,1.451.723,2.142,1.117-.111,1.508.566,2.228,2.142,2.049.267.634.227,1.571.652,2.049,1.382.66,1.562-1,2.515-.838,1.357.233-.03,3.086.652,3.819a1.642,1.642,0,0,0,.466,2.422,1.669,1.669,0,0,1-1.118.928c-1.25.867-1.959,4.188.466,4.284-.026,1.766,1.232,2.246,1.956,3.26a4.59,4.59,0,0,0,.466,2.981c-.328.25-1.214-.268-1.49.186.651,1.878-.2,2.451-1.677,2.981a10.61,10.61,0,0,0,.093,2.049,3.56,3.56,0,0,0-1.118,2.795c.34,1.428,5.314,1.285,4.471,4.284.589.778,2.09.643,3.356.745-.658,1.217-2.571,3.66-1.025,5.03-.433.281-1.106.323-1.025,1.117a2.311,2.311,0,0,0-3.074.279c-1.622.311-2.571-.7-3.819-.186-.214.159-.22.525-.279.838a2.532,2.532,0,0,0-1.214.466c-.059.8.161,1.329.093,2.142-.352.143-.58.413-.928.559-1.089-.214-1.312-1.3-2.142-1.77-.714.438-.588,1.709-2.049,1.4-.014-.773.556-1.412.279-2.142-1.115,0-1.255.946-2.515.559-.307,0-.357.265-.373.559-.526-.126-.823-.481-1.3-.652-.714.218-1.008.857-1.491,1.3.03.531.456,1.157.186,1.677-.516.086-.613-.9-1.677-.559a13.37,13.37,0,0,0-.652-1.49,3.981,3.981,0,0,0-1.4.186c-.327.064-.071.714-.186.745-1.545.206-3.3.488-4.379-.28-.595.151-.587.9-.838,1.4-.971.3-1.232,1.315-2.142,1.677-1.13-.785.333-1.538.559-2.329.1-.616-.725-.646-.745-1.025-.023-.421.736-.648.928-1.214.066-1.58-.28-3.57.559-4.379a1.036,1.036,0,0,0-.186-.745c.963-.493,1.377-2.729,0-2.7-.72.014-.593.828-1.214,1.117-1.025-.489-1.571.351-2.795.186V60.483c-.347-1.04-1.609-.186-2.049-.928a6.908,6.908,0,0,1-4.658,1.025c-.408.4-.106,1.508-.838,1.584-.714-.807-2.191-.057-2.981-.559.049-.968.8-2.116-.559-2.516-.533-.006-.553.5-.838.745a2.424,2.424,0,0,0-2.142-.279c-.822.857-.861,2.493-1.677,3.356-.392-.071-.473-.458-.559-.838a24.905,24.905,0,0,0-2.142-2.516c-1.062.149-2.285.138-2.888.745a35.7,35.7,0,0,1-5.31-.093c-.05-.261-.137-.484-.186-.745-.9,0-.986-.815-1.4-1.3-.053-.666.254-1.285.093-1.77a10.3,10.3,0,0,0-2.981-.838c-.125-1.676-1.416-2.186-2.236-3.168-1.6.409-1.785-1.043-2.515-1.77.064-.4.357-.571.466-.928-.243-1.285-1.28-1.433-2.516-.928a2.375,2.375,0,0,0-.928-.559,2.134,2.134,0,0,0-1.025,1.77c-.624-.076-.992.11-1.584-.093-.477-.164-.663-.657-1.025-.745a4.37,4.37,0,0,0-2.888.652c-.724-.521-2.436-1.23-2.981-.093-.546-.708-1.357-.112-2.142-.279-.451-.1-.8-.732-1.214-.745-.975-.032-1.131,1.321-2.329,1.214.174-.981-.439-1.175-1.025-1.4,1.075-.758.613-3.051,1.584-3.912,1.071.286,2.58,1.125,3.26,0,.827.081,1.235,1.066,1.956,1.117,1.214.087,1.315-1.264,1.214-2.888.149-1.028,2.176-.861,2.795-1.584a1.694,1.694,0,0,0-.559-2.422c-1.321.2-1.744-.492-2.608-.745a2.713,2.713,0,0,1-2.7-.093c.623-.516.485-1.432.745-2.142.274-.75,1.024-.976,1.3-1.584.063-.528-.3-.628-.373-1.025-.115-1.085,1.157-1.637,1.4-2.7.263-1.167-.629-2.416.373-3.26.58.071.763.541,1.3.652a15.529,15.529,0,0,0,2.608-1.117,8.176,8.176,0,0,1,2.236-3.447,5.013,5.013,0,0,0,2.422-.373c.842.587,1.558,1.3,2.422,1.863.6-.147.753-.737,1.3-.928.84.938,3.246.779,4.565.928.978-.917.8-2.99,1.025-4.658A15.6,15.6,0,0,0,319.3,18.3V17.087c1.092-.585,2.256-1.1,2.328-2.7,1.364-.033,2.457-.338,2.981-1.214.94.256,2.84,3.482,3.726,3.447C329.079,16.589,329.006,15.663,329.548,15.221Z" transform="translate(-228.661 -12.14)" fill="none" fill-rule="evenodd"/><path d="M110.279,176.772c-.011.384.162.583.093,1.025.128.276.7.1.928.279.273,1.652.438,3.412,2.142,3.633.659.8,1,1.918,1.956,2.422-.346,1.681.608,2.7,1.117,3.819.395.071.816.116,1.214.186a1.018,1.018,0,0,0,.093,1.025c-.825.416-.893,1.591-1.677,2.049.1.547.48,1.043.28,1.77-.09.326-.448.338-.652.652-.646.995-.718,2.823-1.4,4.1-.439.824-1.2,1.128-1.491,1.863-.785-.024-1.362.393-2.049.373-.463-.014-.782-.341-1.214-.279-.791.112-1.056,1.177-2.049,1.025a7.377,7.377,0,0,0-1.4,2.236,1.452,1.452,0,0,0,1.214.745c.447,0,.586-.448.928-.279a4.753,4.753,0,0,0,.28,3.074c.8-.043,2.1-.071,2.142-.559.7-.138.326.791.559,1.117.394.524.666.938,1.584.745v.928c-1.3-.214-1.317.857-1.677,1.584a16.073,16.073,0,0,0-2.516.928c-.064.654.158,1.023.093,1.677.238.538,1.053.5,1.4.928-.029.344-.582.164-.745.373-.413,1.456.138,2.706,1.4,2.795-.316,1.994,1.571,1.785,2.516,2.516a5.607,5.607,0,0,0,.745,2.516c-.571.548-.637,1.6.466,1.584-.068.842-.376,1.841.186,2.329a17.941,17.941,0,0,1-2.236.838,9.814,9.814,0,0,1-2.329.745,12.4,12.4,0,0,1-1.863-.559c-1.627-.314-3.979-.01-5.31-.373-.346-.094-.524-.458-.838-.559-.514-.164-1.088.143-1.4-.279a1.979,1.979,0,0,1-1.584-.093,6.482,6.482,0,0,0-2.049,3.912,1.242,1.242,0,0,0-1.025.373c-.121.756-.143,1.446.373,1.77-1,.441-.807,2.019-.093,2.608-.74,1.4-.905,3.38-2.7,3.727a7.865,7.865,0,0,1-.928,1.956c-.793.279-1.893-.333-2.142.745.476.918-.266,1.549.373,2.329-.54.044-.606-.673-1.117-.745-.388-.056-.708.346-1.118.373-.7.046-1.519-.448-2.142.186-.123-.778.286-2.084-.279-2.422-.692-.04-.665.643-1.3.652-.694-.229-.133-.905-.279-1.4a2.019,2.019,0,0,0-1.584-1.118c-.647.066-.626.813-1.214,1.118-.936.186-1.624-.848-2.422-.928a3.23,3.23,0,0,0-2.049.838c-.038.472.308.562.559.745-1.454.762-1.991,2.9-1.863,4.937-1.682.4-1.928-.6-2.888-1.118-1.187.533-1.857-.734-2.981,0-.742-.2-.657-1.052-1.3-1.118-.691-.071-1.057.857-1.77,1.118a10.363,10.363,0,0,1-2.329-.559c.292-1.478-.333-2.865-.186-4.005.081-.623.513-.962.559-1.4a6.451,6.451,0,0,0-.093-1.677c-.092-.473-.683-.915-.745-1.584-.111-1.185,1.817-2.888-.093-4.006a2.566,2.566,0,0,0-.838-2.049c-.408-3.281-1.692-6.029-2.422-9.316-.225-1.012-.643-2.04-.745-2.981-.166-1.489.276-3.6-.652-4.471.3-1.976-.471-2.882-.466-4.565,1.167.433,2.182,2.092,3.54.745,1.4-.046,2.856.227,4.006-.466,1.024.1,1.673.643,2.795.466.819-.131,1.121-.9,1.863-.745.87.18.836,1.348,1.3,2.142.97-.191,1.574.436,2.329.373.928-.077,1.891-1.422,3.074-2.049.214-.115.571-.149.838-.279a2.95,2.95,0,0,1,1.77-.559,1.076,1.076,0,0,0,.559.745,5.507,5.507,0,0,0,2.516-.559,5.272,5.272,0,0,0-.373-3.726c.167-.357.608-.448.559-1.025a11.56,11.56,0,0,0,1.863-.279c.863.621,1.142,1.394,2.516.652,1.2-.649,2.756-1.975,2.795-3.819a5.39,5.39,0,0,0,3.168.373c.734-.233.643-1.2,1.3-1.3.4.406.416,1.2,1.025,1.4-.979.328-.249,1.256-.928,1.77a4.321,4.321,0,0,0,.745,1.77c1.007-.08,1.825.424,2.608.279.37-.071.506-.47.838-.559.571-.151,1.177.418,1.584-.186-.071-1.22-.027-2.325.559-2.888-.308-.84-.537-1.761-1.4-2.049-.148-.442-.032-1.148-.466-1.3-.933.123-1.387.725-2.608.559-.116-2.39,2.439-2.179,1.677-5.5a2.347,2.347,0,0,0,.466-.652c2.417-.019,2.2-3.362,1.3-4.937,1.061-.759-.214-2.047.093-2.981.194-.583.947-.448,1.4-.928-.556-2.419,1.368-2.356,1.677-3.912,2.219-.11,4.458-.2,5.31-1.677C109.863,176.506,109.951,176.759,110.279,176.772Z" transform="translate(-48.238 -139.596)" fill="none" fill-rule="evenodd"/><path d="M296.538,176.49c.571.936,1.928-.206,2.516.373.22.5-.428.685-.466,1.214a14.457,14.457,0,0,0,1.957,2.516c1.243-.166,1.477.16,2.142.928.451.523.933.9.838,1.77.643.66,2.006.6,2.981.928-.5,1.387.162,1.968.466,2.981.2.2.589.218.928.28a1.737,1.737,0,0,0,.093.745c2.071.637,4.07.136,6.148.279.71-.366,1.5-.946,2.329-.745a4.9,4.9,0,0,1,1.956,2.7,4.026,4.026,0,0,0,1.4.745c.928-.813,1.133-2.345,1.677-3.54.928-.323,1.262.214,1.77.559.571.022.627-.893,1.025-.745-.176.617-.58,1.614.093,2.329,1,.392,2.5-.222,3.168.559.83-.226,1.584-.528,1.491-1.677a4.733,4.733,0,0,0,3.912-.838,1.03,1.03,0,0,0,1.491.186c.243.316-.056,1.174.186,1.49,1.062.933,2.445-.4,3.633.186.633-.112.561-.928,1.214-1.025.076.946-.74,1-1.025,1.584-.036.408.266.479.28.838-.05.476-.443.571-.559,1.118-.193.909.226,2.257,0,3.168-.143.571-.918.943-.928,1.4-.015.506.571.829.745,1.025-.28.527-.744.87-1.025,1.4a7.615,7.615,0,0,0,.466,1.584c.489.131,1.133.109,1.4.466-.077.948-.571,1.477-.373,2.7-.038.366-.409.4-.466.745-.035.408.266.479.279.838-.286.728-1.183,1.152-1.3,2.049-.059.44.272.706.373,1.3.208,1.24-.055,2.815.093,3.912.58.538.781,1.455,1.957,1.4-.325.452-.919.634-1.214,1.117-.017.483.436.5.466.928a21.232,21.232,0,0,0-3.819,2.142,1.918,1.918,0,0,0-2.981.559,8.751,8.751,0,0,0,.186,1.4c-1.088.5-2.916.191-2.236,2.236-.995-.433-1.117-1.741-1.957-2.329-1.642.543-2.562-.165-3.819-.652-.5.118-.591.652-.928.928.071.366.194.675.279,1.025-.818.424-1.106,1.378-2.422,1.3a10.1,10.1,0,0,0-1.4,1.863c.628,1.626-.835,2.9-.652,3.726.176.792,1.436.558,1.863,1.3-.456.382-1.412.264-1.677.838a9.711,9.711,0,0,0-2.142.093c-.591-.309-.75-1.052-1.4-1.3a4.666,4.666,0,0,0-1.77,1.025,4.356,4.356,0,0,0,.652,1.956c.459.071.861.195,1.3.279.139.9,1.571,1.686,2.608,1.583.546-.054.6-.488,1.025-.466.238.289-.052,1.107.186,1.4a2.583,2.583,0,0,0,2.329-.186c-.479,1.34.54,1.989.279,3.633-1.153.218-1.928,2.274-.928,2.981-.688,2.325-2.312,3.713-3.727,5.31.8,1.152,2.234,1.679,3.356,2.516-.161.708-.825.755-1.025,1.584-.236.973.265,2.295,0,3.26-.214.785-1.051.947-1.4,1.49-1.12.061-2.516-.157-3.356.186-.395-1.255-2.928-2.27-4.006-1.118.109.543.106,1.2.186,1.77-1.436.721-2.593.066-4.565.186a12.213,12.213,0,0,0-1.491-1.118c.228-1.061-.564-2.009-1.3-1.49-.191-.181-.228-.518-.559-.559a3.992,3.992,0,0,0-1.4.838c-.166-.328-1.011-.378-1.4-.186-.372.59-.6,1.327-1.3,1.584a3.134,3.134,0,0,1-.928,3.074,13.636,13.636,0,0,1-1.957-.838c-.172-.832.219-1.421.093-1.956-.219-.933-1.538-1.165-1.956-1.956a1.638,1.638,0,0,0-.186-1.956c2.294.357,3.79-.944,2.422-2.7-.73-.078-1.422-.193-2.142-.279-.488-.91-.253-2.541-1.49-2.7-.393.011-.471.336-.745.466a7.824,7.824,0,0,0-2.888-1.025,2.285,2.285,0,0,0-2.328-1.863c0-1.494-2.953-2.662-3.074-.559-.778-.248-1.052.5-1.4.373-.669-.564.364-.639.466-1.214-.388-1.071-.878-2.041-1.3-3.074a17.331,17.331,0,0,1,1.4-1.956c.565-.025,1.28.1,1.584-.186a5.284,5.284,0,0,0-1.584-2.516h-1.49c-.372-.963-.88-1.79-1.3-2.7.178-.753,1.142-.72,1.956-.838.613-1.21-.366-2.34-.093-3.819,1.148-.436,2.546-.621,3.447-1.3a4.713,4.713,0,0,1-.186-2.888.85.85,0,0,0-.838-.559c.78-.828-.2-1.544-.373-2.609-.043-.271.061-.678,0-.838-.388-1.02-1.905-.921-2.516-1.584-.041-.428.094-1.025-.093-1.3-.456-.286-1.112-.378-1.49-.745-.071-.477.131-.677.093-1.117a1.2,1.2,0,0,0,.838-.279c.251-1.338-.828-1.346-1.49-1.77v-1.025c.75-.181,1.357-.51,2.142-.652.393-.353.451-1.04.745-1.49.441.071.643-.1,1.025-.093a5.685,5.685,0,0,0,.279-2.236c-.388-.248-1.205.034-1.49-.093-.206-1.1-.628-1.98-1.863-2.049-.339.064-.322.486-.466.745h-.838a7.3,7.3,0,0,1,.093-2.516c-.046-.482-.66-.4-.928-.652-.5-.151-.538.636-.928.279-.321-.311.5-1.033.652-1.49,1.027.064,1.27-.655,1.863-1.025a5.107,5.107,0,0,0,3.356-.093A7.744,7.744,0,0,0,285.285,198c.785-1.589.813-3.789,2.142-4.658-.044-.643.131-1.5-.186-1.863.546-.665.826-1.6,1.584-2.049a2.079,2.079,0,0,1-.093-1.584c-.2-.518-1.025-.4-1.584-.559-.087-.833-.825-1.235-.928-2.049-.054-.408.3-.905.186-1.3-.134-.478-.461-.271-.838-.652-.566-.571-.9-1.714-1.49-2.236-1.571-.045-1.5-1.728-1.863-2.981.271-.6.9-.837,1.4-1.214.423,1.036,2.571.345,3.356,1.025.558-.02.568-.571,1.025-.652.763-.129,1.188.714,1.77.745.7.041,1.54-.955,2.795-.652.374.091.5.523.838.652a6.625,6.625,0,0,0,2.516.093C296.189,177.632,296.1,176.8,296.538,176.49Z" transform="translate(-218.474 -139.594)" fill="none" fill-rule="evenodd"/><path d="M513.417,261.727c.25.464.294,1.134.745,1.4.257.23.473-.143.838-.093.473,1.552.168,2.959-.186,4.844-.163.865-1.05,2.161-.928,2.608.239.9,2.042.336,2.515,1.214a20.952,20.952,0,0,0,2.142-.745,6.264,6.264,0,0,1,2.142-.745c.62.05,1.239.875,1.863,1.117.857.333,1.514.35,2.328.652a2.316,2.316,0,0,0,.745,1.025c.725.036,2.214-.416,2.236.745a5.864,5.864,0,0,0-1.49,1.025c-.03,2.452,1.016,3.828,3.074,4.192a1.755,1.755,0,0,0,.928.928c.318-.024.448-.236.838-.186a2.285,2.285,0,0,0,.559,1.025c.375.064.532-.089.838-.093.071,1.107-.176,2.536.186,3.356a12.886,12.886,0,0,0-1.956.186c-.272.1-.3.444-.279.838H528.04a1.473,1.473,0,0,0,.279,1.863c-.265.79-.764,1.347-1.025,2.142-1.571-.264-1.467,1.142-2.049,1.863h-1.025a.707.707,0,0,0-.559.745c-.893-.178-.87.559-1.3.838a4.976,4.976,0,0,1-2.049-.652c-.735.158-.973.628-1.584.559-.7-.079-1.2-1.231-2.422-.745-.114-.785-.014-1.785-.466-2.236a5.507,5.507,0,0,1-3.26-.652c-.5.116-.691.552-1.118.745a16.265,16.265,0,0,0-2.888-.186c-.623.588-.589,1.833-.928,2.7-1.1-.071-2.071-.544-2.515.373a1.442,1.442,0,0,0-.559-.838,2.034,2.034,0,0,0-1.025.186,8.619,8.619,0,0,0-.279-1.863c-.271-.559-1.03-.578-1.4-1.118-.53-.778-.2-1.571-.745-2.422a10.935,10.935,0,0,0-2.236-.093c-.381.179-.487.631-.652,1.025-.724-.27-1.585-.4-2.329-.652-.588.219-.656.959-1.677.746a3.622,3.622,0,0,0-5.962,1.4c-.864.1-1.673.253-2.516.373-.022-1.2-.972-1.629-1.956-2.329-1.353-.963-2.1-1.545-3.633-.373-.76-.214-.857-1.056-1.584-1.025-.778.034-1.045,1.2-1.677,1.677.242.908.571,1.723.838,2.608a2.6,2.6,0,0,0-.559,2.608c-.343.214-1.085.033-1.584.093a2.63,2.63,0,0,1-.745,1.491c.047.543.476.7.652,1.118-.772,1.743,1.058,1.809,1.49,2.888-.091,0-.071.114-.093.186-.762.189-2.388-.3-3.54.093-.6.208-.75.77-1.214.928-.5-.721-1.52-.848-1.77.186a23.966,23.966,0,0,0-3.26-1.118c-.99.718-1.477,1.939-2.422,2.7a9.559,9.559,0,0,0-2.049.186c-.308.624-.071,1.793-.279,2.516-1.278.275-2.766.34-3.168,1.491.034.463.543.451.838.652-.773.531-2.177.428-2.795,1.117-.4.023-.5-.243-.928-.186a4.784,4.784,0,0,1-2.981.186c-.87-.231-2.086-1.764-2.981-2.049a10.931,10.931,0,0,0,2.981-3.819c.5-1.013,1-1.692.093-2.515a4.67,4.67,0,0,0,.559-1.214c.371.03.688.005.838-.186.286-1.894-.617-2.97-.186-4.471-.565-1.061-1.455.1-2.422,0,.2-1.128-.437-1.428-.928-1.863-.473.085-.671.447-.928.745a2.538,2.538,0,0,1-2.236-1.584,8.47,8.47,0,0,0-1.214-.186,9.134,9.134,0,0,1-.373-1.118c.3-.135.522-.347.838-.466.589.25.755.922,1.3,1.214.87-.365,1.774.009,2.608-.186.684-.16,1.274-.895,2.049-.745a3.555,3.555,0,0,0,.093-1.214,4.2,4.2,0,0,0-1.77-.928c.968-1.175.267-4.018,1.584-4.844,1.551.124,1.714-1.142,2.888-1.4.162-.736-.506-1.265-.093-1.677.957.161,2.134,1.142,3.633.559a10.376,10.376,0,0,0,1.677,2.329,2.237,2.237,0,0,0,1.214-.279,12.585,12.585,0,0,0-.094-1.584,3.594,3.594,0,0,0,2.329-.838c-.832-1.642.887-2.679,1.863-1.49,1.684-.831,3.285-1.747,4.844-2.7a1.505,1.505,0,0,0-.466-.928c.415-.578,1.28-.708,1.49-1.49-.207-.538-1.1-.393-1.677-.559a.857.857,0,0,0-.652-.745c-.126-1.339.163-3.8-.559-4.844.411-.832.972-1.512,1.4-2.328a.865.865,0,0,0-.279-.652c.636-.271.311-1.361.466-2.236.132-.75.806-1.565-.094-2.049.472-1.111,1.957-1.21,2.142-2.608,1.254.78,3.225.169,4.937.093.318-.232-.037-.583.186-.838.767-.021.485,1.006.928,1.3a1.856,1.856,0,0,1,1.677.838c.459-.162,1.093-.149,1.3-.559a4.641,4.641,0,0,0-.28-1.677c.071-.424.5-.491.652-.838.658.243,1.013.785,1.863.838.29-.021.157-.463.186-.745.637.066,1.013.143,1.4-.186.047.571-.258.8-.186,1.4a2.026,2.026,0,0,0,2.888-.652,2.148,2.148,0,0,0,3.727.279c.059-.741-.162-1.2-.094-1.957.6-.2,1.295-.32,1.3-1.117,1.33.121,2,.628,3.26.373.611-.124,1.053-.8,1.584-.838.789-.059,1.12.75,1.956.652.327-.108.286-.584.279-1.025,1.109-.857,2.383-.821,2.7.466.071.286-.1.631,0,.928.223.684,1,.957,1.214,1.4.272,1.318,0,2.419.373,3.356.328.828,1.642,1.032,2.328,1.491,1,.663,1.534,1.563,2.329,1.956h1.3A2.436,2.436,0,0,0,513.417,261.727Z" transform="translate(-350.49 -197.442)" fill="none" fill-rule="evenodd"/><path d="M75.881,405.654c-.193,1.28.394,1.779.28,2.981-1.254-.136-1.652.583-2.236,1.118a16.117,16.117,0,0,0,1.863,3.633,1.78,1.78,0,0,1,2.329,1.3c-1.763-.024-1.792,1.686-2.7,2.516.268,1.16.873,1.984,1.214,3.074-.116.412-.663.393-.745.838A3.919,3.919,0,0,0,77,422.7c.593-.246.75-.928,1.77-.746.475-.115.238-.943.559-1.214a14.3,14.3,0,0,1,1.4.745c-.047.513.007.928.28,1.118,1.524-.189,1.969.7,2.329,1.677,1.23-.138,2.338,1.164,3.26,1.214.481.024.637-.5,1.025-.186.51.578.255,1.919.928,2.329.656.121,1.395.159,2.049.279.124.364.4.785.186,1.214-.974.113-2.442-.268-2.981.279a5.09,5.09,0,0,0,.652,1.677,2.8,2.8,0,0,0-.466.928c.4,1.1,1.714.975,2.049,2.049.194.628-.3,1.281-.093,1.957.286.916,1.684.785,2.422,1.3a3.157,3.157,0,0,0,.466,1.3c.531-.064.773.158,1.3.094.024,2.026,2.394,1.7,3.447,2.7a11.788,11.788,0,0,0-.466,5.217c.226.928,1.2.986,1.4,1.677-.571.8-1.084,1.649-1.584,2.516.658,1.024-.475,2.058-.373,2.888.091.738.822.751,1.214,1.4a12.628,12.628,0,0,0-.093,1.583,7.579,7.579,0,0,0-.928.652,17.987,17.987,0,0,0-.093,2.888c-.5.278-.763.79-1.214,1.118H92.929c.03-.622.249-1.055.279-1.677-.169-.607-1.253-.3-1.956-.373,0-.928.156-1.707.093-2.7-.341-.518-1.083-.492-1.584-.558a8.25,8.25,0,0,0-1.956-.186c-.651.071-1.365.736-1.956.745-.769.012-2.076-.789-3.074-1.214-1.86-.785-3.208-1.737-6.242-1.118a4.032,4.032,0,0,0-.093-1.3c-1.564-.475-3.614.1-5.217-.279-.623-.471-.822-1.46-1.584-1.77-.726-.295-1.544.071-2.516,0-1.3-.094-2.491-1.025-3.726-1.025-.346,0-.558.219-.928.279-2.4.392-5.158-.576-7.64-.373a13.779,13.779,0,0,0-1.863-1.118c-.521.063-.96.339-1.4,0-1.322.225-2.523,1.19-4.006,1.491-.916.186-2.285,0-3.447.093a11.106,11.106,0,0,1-1.117.186,16.45,16.45,0,0,0-2.516-.279c-1.405.071-3.165-.229-4.006,0a7.221,7.221,0,0,0-2.329,2.7c-.254.68-.158,1.4-.373,2.049-1.051.8-2.246,1.357-3.26,2.142-.983.763-1.807,1.816-3.074,2.236-.2-.478-.437-.928-.652-1.4-1.745-.5-6.109-1.8-6.614.466-.22.985.478,1.435.466,2.422a2.893,2.893,0,0,1-.838-.559c-.523-2.277.407-3.6.279-5.962,1.118-.249,2.262-1.882,1.118-2.981.521-.81.3-1.907.745-3.075.273-.707.872-1.162.928-1.677.2-1.733-.773-3.028-1.4-4.379a3.1,3.1,0,0,0-1.117-.094,10.133,10.133,0,0,1-.833-1.764c-.376-.461-.943-.123-1.4-.28-.718-.248-1.3-1.12-2.142-1.4-.649-.214-1.184.076-1.77-.466-.036-.585.163-1.4-.373-1.491,1.319-2.439,3.345-4.169,4.658-6.614,1.656-.974,3.035-2.349,5.31-2.7a17.616,17.616,0,0,0,1.77,0,7.663,7.663,0,0,0,2.049-1.49,23.671,23.671,0,0,0,1.863-1.584v-2.142a17.4,17.4,0,0,1,2.329.652c.466.131,1.153-1.226,1.584-1.214.4.014.76,1.035,1.214,1.118.416.077.695-.286,1.117-.279.616.013,1.39.882,1.956.186a3.17,3.17,0,0,0,3.726,1.025c-.051-1.434.106-3.4.928-4.471.386-.266,1.014-.29,1.214-.745.166-.542-.588-.651-.466-.838.983-.916,2.408.9,3.633.652.55-.114.653-.652,1.025-1.118.365.071.506.363.838.466a1.663,1.663,0,0,0,1.118,2.142c.393.109.532-.517.745-.28.054.691-.143,1.637.186,2.049.805.029,1.147-.406,1.77-.559.575.248,1.357.421,1.77-.093.514.169.665.7,1.214.838a1.56,1.56,0,0,0,1.025-.928c-.516-.635-.273-1.435-.373-2.236,1.862.562,2.328-1.006,2.795-2.142,1.256-.279,1.437-1.062,2.049-2.329a6.587,6.587,0,0,0,.838-1.956c-.023-.632-.807-.948-.652-1.583.1-.4.8-.44.838-.745.1-.785-.733-.634-.559-1.491.032-.433.745-.187.928-.466a9.925,9.925,0,0,1,1.49-3.54c.371-.06.375.246.745.186a1.019,1.019,0,0,1,1.4.186c.286.067.339-.1.559-.093,1.086.928,4.311.45,6.521.928C74.063,405.7,74.83,406.37,75.881,405.654Z" transform="translate(-12.815 -317.335)" fill="none" fill-rule="evenodd"/><path d="M426.118,412.54c1.053.623,1.979,1.375,2.981,2.049.186.559.281,1.21.745,1.491.965-.327,1.884-.071,2.795-.466,1.188-.511,1.37-2.434,2.981-2.516a3.178,3.178,0,0,1,2.516,1.214,2.642,2.642,0,0,0,2.328-.745c.674.286,1.522.4,2.236.652.428-.191.541-.7.745-1.117h1.4c.444,1.295.674,2.8,2.049,3.168.252.763.028,1.754.279,2.328.389.194.761-.078,1.214-.093.581.133.518.91,1.118,1.025.53,0,.545-.511.745-.838.55.2,1.442.049,1.77.466-.143.446-.785.392-1.025.745.4,1-.9,1.2-.928,1.863-.041.743,1.347,1.182,1.77,1.77.378.526.214,1.1.373,1.584.517,1.621,2.154,2.071,3.356,2.236-.039,1.577,1.608,2.195.838,3.912-.454.322-1.165.388-1.491.838a27.633,27.633,0,0,0,2.422,3.912,2.044,2.044,0,0,0-.652,1.77c.056.466.543.648.652,1.025.143.487-.134,1.349,0,2.049.125.653.579,1,.559,1.491-.019.466-.638.9-.652,1.4-.023.819,1.025,1.519,1.3,1.956a3.894,3.894,0,0,1,1.118.094c-.28,1.739.38,2.539,1.49,2.888V449.9c-2.8.543-6.964-.8-8.756.745-.5.428-.416,1.04-.928,1.584-.791-.214-1.285-1.156-2.7-1.025a14.454,14.454,0,0,0-3.07.28c-.91.467-.732,2.025,0,2.608-.318-.041-.838-.214-1.118,0-.373.186-.231.887-.373,1.3a3.912,3.912,0,0,0-1.689.833v1.214c-1.549.286-1.752,1.913-2.608,2.888.328,1.271-.863,1.714-.466,3.356-.3.138-.725.143-.928.373-.06,1.976-1.357,2.9-1.025,4.751a1.385,1.385,0,0,0,1.025.838c-.065,1.23.938,1.907.186,2.794.381,1.1,1.551,1.622,1.214,2.981-.186.742-1.52.928-1.214,2.049a3.545,3.545,0,0,1-1.025-.093,2.638,2.638,0,0,0-.279-.838,2.349,2.349,0,0,1-2.422-1.214,8.855,8.855,0,0,0-.094-2.049c-.594-.646-1.363-.512-2.049-1.214s-.823-1.566-1.863-1.677c-1.357-.143-3.987.357-4.565,1.214-.345-.028-.335-.41-.838-.279-.491.071-.445.673-.745.928a13.521,13.521,0,0,1-1.957-.093c-.286-.518-.273-1.342-.745-1.677-1.23.2-2.433.424-2.7,1.584-.444.071-.6-.143-1.025-.094-.66.333-.683,1.3-1.025,1.956-1.207-.421-1.7.229-2.515.652-.668-.793-.7-2.214-1.77-2.608a4.521,4.521,0,0,0,.373-1.49c-.039-.76-.933-1.361-1.3-2.328-.148-.385-.017-.582-.186-.838a3.008,3.008,0,0,0-2.328-.928c-.99.1-1.4.95-1.863,2.049-3.306-.467-4.621,1.828-4.751,4.844a1.048,1.048,0,0,0-1.214-.838c-.53-.836-.476-2.256-.652-3.447-1.808-.531-4.4-.976-5.4.559-.094-1.272-1.044-1.689-1.863-2.236.041-.724.032-1.4-.466-1.584-1.694.294-2.285,1.689-2.981,2.981-1.1-.178-1.5.3-2.328.093-1.118-.282-1.446-1.733-2.236-1.77-.816-.039-1.087.9-1.677,1.4a3.945,3.945,0,0,1-.838,3.26c-.368-.036-.506-.3-.745-.466.049-1.079.955-1.554.838-2.516-.181-1.493-2.761-1.2-4.192-1.77-.071-1.066.129-1.857.093-2.888a7.469,7.469,0,0,0,.928-.652c.363-1.76,0-2.724-1.025-3.447.143-.828.825-1.767.373-2.608.153-1.033,1.634-1.834,1.584-2.795-.04-.765-1.038-.942-1.4-1.677,0-1.957-.166-4.079.559-5.31-.862-.939-2.363-1.239-3.54-1.863a1.585,1.585,0,0,0-.373-1.3,6.006,6.006,0,0,0-1.3-.093c-.291-1.656,1.692-1.948,1.118-3.912a3.846,3.846,0,0,0,1.025-1.4c.476-.1.393.353.746.373.62-.157.9-.652,1.49-.838a1.567,1.567,0,0,0,.466.928c.583.172.458-.73.838-.466.021.3-.165.394-.093.745.456.849,1.377,1.23,2.049,1.863,2.351,0,3.877.5,5.4-.559.237-.495-.252-1.447,0-1.956a10.03,10.03,0,0,1,1.956.373c.276.438.377,1.051.838,1.3,1.214-.476,2.548.1,3.726-.186,1.018-.251,1.46-1.368,2.142-1.863-.095-2.113-.1-4.141,1.025-5.031,1.576.391,2.376-.115,3.633.094.9-.785,2.686-.668,3.54-1.491.12-.7-.623-.963-.559-1.3.853-.327,1.964-.4,2.795-.745a20.052,20.052,0,0,0,.186-2.422c2.633.366,2.9-1.636,4.1-2.7,1,.464,2.381.538,2.981,1.4.587,0,.594-.586.838-.928.511-.1.453.561,1.025.559.508,0,.875-.923,1.49-1.118a4.682,4.682,0,0,1,3.168.279c.441-.363,1.041-.917,1.025-1.4-.029-.836-1.345-1.071-1.77-1.677a1.928,1.928,0,0,0-.373-2.049c.214-.163.78-.458.466-.838.267-.119,1.365.156,1.77-.093-.021-.823-.5-2.5.559-2.888a9.979,9.979,0,0,0-.838-2.795c.214-.5.664-.764.928-1.214C423.687,413.445,424.879,413.6,426.118,412.54Z" transform="translate(-294.769 -323.662)" fill="none" fill-rule="evenodd"/><path d="M386.483,327.676a2.618,2.618,0,1,1,2.618,2.618,2.618,2.618,0,0,1-2.618-2.618Z" transform="translate(-303.627 -255.536)" fill="none" fill-rule="evenodd"/></g><g transform="translate(11.996 126.63)" fill="#fff" stroke="#fff" stroke-width="1"><circle cx="2.142" cy="2.142" r="2.142" stroke="none"/><circle cx="2.142" cy="2.142" r="1.642" fill="none"/></g></g></g></svg>