<svg xmlns="http://www.w3.org/2000/svg" width="33.575" height="53.014" viewBox="0 0 33.575 53.014"><g transform="translate(-162 -3028.986)"><g transform="translate(74 3028.986)"><g transform="translate(88)"><g transform="translate(0)"><path d="M104.788,0A16.788,16.788,0,0,0,88,16.788c0,4.467,2.889,11.276,8.586,20.234l7.455,11.728a.884.884,0,0,0,1.491,0l7.456-11.728c5.7-8.958,8.586-15.766,8.586-20.234A16.788,16.788,0,0,0,104.788,0ZM111.5,36.075l-6.711,10.553L98.077,36.075c-5.514-8.672-8.31-15.161-8.31-19.287a15.021,15.021,0,1,1,30.041,0C119.808,20.914,117.013,27.4,111.5,36.075Z" transform="translate(-88)" fill="#fff"/></g></g><g transform="translate(96.836 8.836)"><g transform="translate(0)"><path d="M175.952,80A7.952,7.952,0,0,0,168,87.952c0,4.044,6.469,14.335,7.206,15.5a.884.884,0,0,0,1.491,0c.738-1.16,7.206-11.451,7.206-15.5A7.952,7.952,0,0,0,175.952,80Zm0,21.3c-2.232-3.659-6.185-10.691-6.185-13.347a6.185,6.185,0,1,1,12.37,0C182.137,90.61,178.184,97.64,175.952,101.3Z" transform="translate(-168 -80)" fill="#fff"/></g></g><g transform="translate(89.767 45.158)"><g transform="translate(0)"><path d="M122.608,408.875l-.1,1.767c6.529.368,9.35,1.564,9.744,2.113-.554.819-5.267,2.205-13.23,2.205s-12.676-1.385-13.23-2.209c.394-.549,3.212-1.744,9.731-2.113l-.1-1.767c-3.434.2-11.421.964-11.421,3.88,0,3.138,9.442,3.976,15.021,3.976s15.021-.838,15.021-3.976C134.041,409.836,126.045,409.068,122.608,408.875Z" transform="translate(-104 -408.872)" fill="#fff"/></g></g><g transform="translate(100.37 12.37)"><g transform="translate(0)"><path d="M204.418,112a4.418,4.418,0,1,0,4.418,4.418A4.418,4.418,0,0,0,204.418,112Zm0,7.068a2.651,2.651,0,1,1,2.651-2.651A2.651,2.651,0,0,1,204.418,119.068Z" transform="translate(-200 -112)" fill="#fff"/></g></g></g></g></svg>