<svg xmlns="http://www.w3.org/2000/svg" width="43.501" height="46.145" viewBox="0 0 43.501 46.145"><g transform="translate(-13.8)"><path d="M49.041,29.646a8.258,8.258,0,0,0-6.535,3.219L29.83,25.784a8.277,8.277,0,0,0,.46-2.721,8.1,8.1,0,0,0-.47-2.731l12.667-7.071A8.241,8.241,0,1,0,40.782,8.25a8.055,8.055,0,0,0,.469,2.731L28.594,18.052a8.242,8.242,0,1,0,.019,10.013L41.28,35.146a8.246,8.246,0,1,0,7.761-5.5Zm0-27.049a5.663,5.663,0,1,1-5.663,5.663A5.668,5.668,0,0,1,49.041,2.6ZM22.059,28.726a5.663,5.663,0,1,1,5.663-5.663A5.668,5.668,0,0,1,22.059,28.726ZM49.041,43.549A5.663,5.663,0,1,1,54.7,37.886,5.668,5.668,0,0,1,49.041,43.549Z" transform="translate(0 0)" fill="#fff"/></g></svg>