<svg xmlns="http://www.w3.org/2000/svg" width="96.676" height="84.496" viewBox="0 0 96.676 84.496"><g transform="translate(0 11.816)"><path d="M41.728,18.067a3.5,3.5,0,1,0-4.956,4.956l5.97,5.97a3.5,3.5,0,0,0,4.956,0L60.453,16.238A3.5,3.5,0,1,0,55.5,11.282l-1.406,1.406a13.545,13.545,0,0,0-3.4-1.894V9.2a3.508,3.508,0,0,0-3.5-3.5H36.2V4.479A4.483,4.483,0,0,0,31.723,0H19.469a4.483,4.483,0,0,0-4.478,4.478v5.06a2.491,2.491,0,0,0,2.488,2.488H33.713A2.491,2.491,0,0,0,36.2,9.538V7.828H47.189A1.374,1.374,0,0,1,48.561,9.2v.982a13.543,13.543,0,1,0,0,26.551V69.177a1.373,1.373,0,0,1-1.372,1.371H4a1.373,1.373,0,0,1-1.371-1.371V9.2A1.373,1.373,0,0,1,4,7.828h7.088a1.066,1.066,0,1,0,0-2.133H4A3.508,3.508,0,0,0,.5,9.2V69.177a3.508,3.508,0,0,0,3.5,3.5H47.19a3.508,3.508,0,0,0,3.5-3.5V36.116a13.552,13.552,0,0,0,8.72-12.188,1.066,1.066,0,1,0-2.132-.073,11.355,11.355,0,0,1-7.9,10.468,1.014,1.014,0,0,0-.178.058,11.417,11.417,0,1,1-3.329-22.338,11.393,11.393,0,0,1,6.691,2.169L45.22,21.559ZM34.069,9.538a.355.355,0,0,1-.355.355H17.479a.355.355,0,0,1-.355-.355V4.479a2.348,2.348,0,0,1,2.346-2.346H31.723a2.348,2.348,0,0,1,2.346,2.346ZM57.005,12.79a1.372,1.372,0,0,1,1.94,1.94L46.189,27.485a1.371,1.371,0,0,1-1.94,0l-5.97-5.97a1.372,1.372,0,1,1,1.94-1.94l4.246,4.246a1.066,1.066,0,0,0,1.508,0Zm0,0" transform="translate(-0.499 0)" fill="#8b0000"/><path d="M119.961,188.547H106.969a1.066,1.066,0,0,0,0,2.132h12.993a1.066,1.066,0,1,0,0-2.132Zm0,0" transform="translate(-90.94 -161.782)" fill="#8b0000"/><path d="M49.261,111.012H42.086a1.066,1.066,0,1,0,0,2.133h7.175a1.066,1.066,0,1,0,0-2.133Zm0,0" transform="translate(-35.267 -95.253)" fill="#8b0000"/><path d="M106.968,225.527h12.993a1.066,1.066,0,1,0,0-2.132H106.968a1.066,1.066,0,0,0,0,2.132Zm0,0" transform="translate(-90.94 -191.683)" fill="#8b0000"/><path d="M124.449,279.648H106.968a1.066,1.066,0,0,0,0,2.133h17.481a1.066,1.066,0,1,0,0-2.133Zm0,0" transform="translate(-90.94 -239.951)" fill="#8b0000"/><path d="M106.968,316.629h8.741a1.066,1.066,0,0,0,0-2.133h-8.741a1.066,1.066,0,0,0,0,2.133Zm0,0" transform="translate(-90.94 -269.852)" fill="#8b0000"/><path d="M106.968,372.98h12.993a1.066,1.066,0,1,0,0-2.133H106.968a1.066,1.066,0,0,0,0,2.133Zm0,0" transform="translate(-90.94 -318.204)" fill="#8b0000"/><path d="M106.968,407.828h17.481a1.066,1.066,0,1,0,0-2.132H106.968a1.066,1.066,0,0,0,0,2.132Zm0,0" transform="translate(-90.94 -348.105)" fill="#8b0000"/><path d="M38.44,182.035a4.307,4.307,0,1,0,4.307,4.307A4.312,4.312,0,0,0,38.44,182.035Zm0,6.481a2.174,2.174,0,1,1,2.174-2.174A2.177,2.177,0,0,1,38.44,188.516Zm0,0" transform="translate(-29.358 -156.194)" fill="#8b0000"/><path d="M38.44,274.242a4.307,4.307,0,1,0,4.307,4.307A4.312,4.312,0,0,0,38.44,274.242Zm0,6.482a2.175,2.175,0,1,1,2.174-2.174A2.177,2.177,0,0,1,38.44,280.724Zm0,0" transform="translate(-29.358 -235.312)" fill="#8b0000"/><path d="M38.44,365.441a4.307,4.307,0,1,0,4.307,4.307A4.312,4.312,0,0,0,38.44,365.441Zm0,6.481a2.174,2.174,0,1,1,2.174-2.174A2.177,2.177,0,0,1,38.44,371.922Zm0,0" transform="translate(-29.358 -313.565)" fill="#8b0000"/></g><path d="M84,62.04a1.783,1.783,0,0,1,.494,1.322A2.412,2.412,0,0,1,84,64.85l-1.652,1.487A2.053,2.053,0,0,1,80.859,67a1.567,1.567,0,0,1-1.318-.659L58.253,45.024a1.567,1.567,0,0,1-.659-1.318V42.067a34.235,34.235,0,0,1-23.269,9.074,33.336,33.336,0,0,1-17.245-4.613A34.679,34.679,0,0,1,4.623,34.07,33.336,33.336,0,0,1,0,16.825,33.336,33.336,0,0,1,4.623-.419,34.679,34.679,0,0,1,17.081-12.877,33.336,33.336,0,0,1,34.325-17.5,33.336,33.336,0,0,1,51.57-12.877,34.679,34.679,0,0,1,64.028-.419,33.336,33.336,0,0,1,68.65,16.825a34.189,34.189,0,0,1-9.083,23.269h1.652a2.053,2.053,0,0,1,1.487.659ZM34.325,45.869A28.9,28.9,0,0,0,59.491,31.429a28.587,28.587,0,0,0,3.878-14.6A28.9,28.9,0,0,0,48.93-8.34a28.588,28.588,0,0,0-14.6-3.878A28.9,28.9,0,0,0,9.16,2.221a28.587,28.587,0,0,0-3.878,14.6A28.9,28.9,0,0,0,19.721,41.991a28.588,28.588,0,0,0,14.6,3.878Z" transform="translate(12.182 17.5)"/></svg>