<svg xmlns="http://www.w3.org/2000/svg" width="146.254" height="84.496" viewBox="0 0 146.254 84.496"><g transform="translate(70.147 23.671)"><path d="M240,86.891h3.415V88.6H240Zm0,0" transform="translate(-218.658 -79.208)" fill="#8b0000"/><path d="M50.488,5.623l-5.8-.828A29.267,29.267,0,0,0,41.4,3.053,28.748,28.748,0,0,0,29.51.492H28.5A29.018,29.018,0,0,0,14.646,4.025l-2.927,1.6A20.171,20.171,0,0,0,1.958,8.268,3.9,3.9,0,0,0,0,11.643v5.069a.854.854,0,0,0,.854.854H3.72a5.1,5.1,0,0,0,9.632,0H36.16a5.1,5.1,0,0,0,9.632,0H46.1a.858.858,0,0,0,.318-.061l2.765-1.11a3.228,3.228,0,0,0,2.04-3.013V6.468A.854.854,0,0,0,50.488,5.623ZM11.882,16.541a3.415,3.415,0,1,1,.069-.683A3.415,3.415,0,0,1,11.882,16.541Zm15.435-.683H13.659a5.122,5.122,0,1,0-10.244,0H1.707V11.643a2.184,2.184,0,0,1,1.1-1.892,18.457,18.457,0,0,1,9.145-2.429H27.317Zm0-10.244H15.3l.165-.09A27.3,27.3,0,0,1,27.317,2.237ZM29.025,2.2h.483A27.018,27.018,0,0,1,39.553,4.124L38.062,5.614H29.025Zm15.3,14.342a3.415,3.415,0,1,1,.069-.683A3.415,3.415,0,0,1,44.322,16.541Zm5.191-8.366H46.952V9.883h2.561v3.5a1.528,1.528,0,0,1-.966,1.426l-2.449.983c0-.079-.01-.156-.015-.235s-.007-.171-.015-.256-.026-.171-.039-.256-.024-.171-.041-.248-.042-.164-.064-.245-.039-.163-.065-.242-.056-.155-.085-.233-.056-.158-.085-.235-.07-.147-.106-.219-.071-.152-.111-.225-.085-.136-.124-.2-.085-.146-.134-.216-.094-.125-.141-.189-.1-.138-.155-.2-.106-.117-.159-.171-.112-.126-.171-.186-.117-.107-.176-.16-.122-.115-.187-.171-.131-.1-.2-.147-.13-.1-.2-.146-.145-.085-.218-.133-.133-.085-.2-.122-.155-.075-.234-.113-.14-.071-.213-.1-.171-.063-.256-.094-.141-.055-.214-.078c-.1-.03-.2-.051-.3-.076-.065-.015-.127-.036-.193-.049-.1-.022-.213-.033-.319-.049-.063-.008-.124-.022-.187-.028a5.189,5.189,0,0,0-.521-.026,5.127,5.127,0,0,0-5.122,5.122H29.025V7.321h9.39a.852.852,0,0,0,.6-.25l2.214-2.214a27.374,27.374,0,0,1,2.706,1.48.857.857,0,0,0,.331.121l5.243.749Zm0,0" transform="translate(0 -0.492)" fill="#8b0000"/></g><g transform="translate(0 13.759)"><path d="M240,86.891h3.415V88.6H240Zm0,0" transform="translate(-218.658 -79.208)" fill="#8b0000"/><path d="M50.488,5.623l-5.8-.828A29.267,29.267,0,0,0,41.4,3.053,28.748,28.748,0,0,0,29.51.492H28.5A29.018,29.018,0,0,0,14.646,4.025l-2.927,1.6A20.171,20.171,0,0,0,1.958,8.268,3.9,3.9,0,0,0,0,11.643v5.069a.854.854,0,0,0,.854.854H3.72a5.1,5.1,0,0,0,9.632,0H36.16a5.1,5.1,0,0,0,9.632,0H46.1a.858.858,0,0,0,.318-.061l2.765-1.11a3.228,3.228,0,0,0,2.04-3.013V6.468A.854.854,0,0,0,50.488,5.623ZM11.882,16.541a3.415,3.415,0,1,1,.069-.683A3.415,3.415,0,0,1,11.882,16.541Zm15.435-.683H13.659a5.122,5.122,0,1,0-10.244,0H1.707V11.643a2.184,2.184,0,0,1,1.1-1.892,18.457,18.457,0,0,1,9.145-2.429H27.317Zm0-10.244H15.3l.165-.09A27.3,27.3,0,0,1,27.317,2.237ZM29.025,2.2h.483A27.018,27.018,0,0,1,39.553,4.124L38.062,5.614H29.025Zm15.3,14.342a3.415,3.415,0,1,1,.069-.683A3.415,3.415,0,0,1,44.322,16.541Zm5.191-8.366H46.952V9.883h2.561v3.5a1.528,1.528,0,0,1-.966,1.426l-2.449.983c0-.079-.01-.156-.015-.235s-.007-.171-.015-.256-.026-.171-.039-.256-.024-.171-.041-.248-.042-.164-.064-.245-.039-.163-.065-.242-.056-.155-.085-.233-.056-.158-.085-.235-.07-.147-.106-.219-.071-.152-.111-.225-.085-.136-.124-.2-.085-.146-.134-.216-.094-.125-.141-.189-.1-.138-.155-.2-.106-.117-.159-.171-.112-.126-.171-.186-.117-.107-.176-.16-.122-.115-.187-.171-.131-.1-.2-.147-.13-.1-.2-.146-.145-.085-.218-.133-.133-.085-.2-.122-.155-.075-.234-.113-.14-.071-.213-.1-.171-.063-.256-.094-.141-.055-.214-.078c-.1-.03-.2-.051-.3-.076-.065-.015-.127-.036-.193-.049-.1-.022-.213-.033-.319-.049-.063-.008-.124-.022-.187-.028a5.189,5.189,0,0,0-.521-.026,5.127,5.127,0,0,0-5.122,5.122H29.025V7.321h9.39a.852.852,0,0,0,.6-.25l2.214-2.214a27.374,27.374,0,0,1,2.706,1.48.857.857,0,0,0,.331.121l5.243.749Zm0,0" transform="translate(0 -0.492)" fill="#8b0000"/></g><g transform="translate(0 37.395)"><path d="M240,86.891h3.415V88.6H240Zm0,0" transform="translate(-218.658 -79.208)" fill="#8b0000"/><path d="M50.488,5.623l-5.8-.828A29.267,29.267,0,0,0,41.4,3.053,28.748,28.748,0,0,0,29.51.492H28.5A29.018,29.018,0,0,0,14.646,4.025l-2.927,1.6A20.171,20.171,0,0,0,1.958,8.268,3.9,3.9,0,0,0,0,11.643v5.069a.854.854,0,0,0,.854.854H3.72a5.1,5.1,0,0,0,9.632,0H36.16a5.1,5.1,0,0,0,9.632,0H46.1a.858.858,0,0,0,.318-.061l2.765-1.11a3.228,3.228,0,0,0,2.04-3.013V6.468A.854.854,0,0,0,50.488,5.623ZM11.882,16.541a3.415,3.415,0,1,1,.069-.683A3.415,3.415,0,0,1,11.882,16.541Zm15.435-.683H13.659a5.122,5.122,0,1,0-10.244,0H1.707V11.643a2.184,2.184,0,0,1,1.1-1.892,18.457,18.457,0,0,1,9.145-2.429H27.317Zm0-10.244H15.3l.165-.09A27.3,27.3,0,0,1,27.317,2.237ZM29.025,2.2h.483A27.018,27.018,0,0,1,39.553,4.124L38.062,5.614H29.025Zm15.3,14.342a3.415,3.415,0,1,1,.069-.683A3.415,3.415,0,0,1,44.322,16.541Zm5.191-8.366H46.952V9.883h2.561v3.5a1.528,1.528,0,0,1-.966,1.426l-2.449.983c0-.079-.01-.156-.015-.235s-.007-.171-.015-.256-.026-.171-.039-.256-.024-.171-.041-.248-.042-.164-.064-.245-.039-.163-.065-.242-.056-.155-.085-.233-.056-.158-.085-.235-.07-.147-.106-.219-.071-.152-.111-.225-.085-.136-.124-.2-.085-.146-.134-.216-.094-.125-.141-.189-.1-.138-.155-.2-.106-.117-.159-.171-.112-.126-.171-.186-.117-.107-.176-.16-.122-.115-.187-.171-.131-.1-.2-.147-.13-.1-.2-.146-.145-.085-.218-.133-.133-.085-.2-.122-.155-.075-.234-.113-.14-.071-.213-.1-.171-.063-.256-.094-.141-.055-.214-.078c-.1-.03-.2-.051-.3-.076-.065-.015-.127-.036-.193-.049-.1-.022-.213-.033-.319-.049-.063-.008-.124-.022-.187-.028a5.189,5.189,0,0,0-.521-.026,5.127,5.127,0,0,0-5.122,5.122H29.025V7.321h9.39a.852.852,0,0,0,.6-.25l2.214-2.214a27.374,27.374,0,0,1,2.706,1.48.857.857,0,0,0,.331.121l5.243.749Zm0,0" transform="translate(0 -0.492)" fill="#8b0000"/></g><path d="M84,62.04a1.783,1.783,0,0,1,.494,1.322A2.412,2.412,0,0,1,84,64.85l-1.652,1.487A2.053,2.053,0,0,1,80.859,67a1.567,1.567,0,0,1-1.318-.659L58.253,45.024a1.567,1.567,0,0,1-.659-1.318V42.067a34.235,34.235,0,0,1-23.269,9.074,33.336,33.336,0,0,1-17.245-4.613A34.679,34.679,0,0,1,4.623,34.07,33.336,33.336,0,0,1,0,16.825,33.336,33.336,0,0,1,4.623-.419,34.679,34.679,0,0,1,17.081-12.877,33.336,33.336,0,0,1,34.325-17.5,33.336,33.336,0,0,1,51.57-12.877,34.679,34.679,0,0,1,64.028-.419,33.336,33.336,0,0,1,68.65,16.825a34.189,34.189,0,0,1-9.083,23.269h1.652a2.053,2.053,0,0,1,1.487.659ZM34.325,45.869A28.9,28.9,0,0,0,59.491,31.429a28.587,28.587,0,0,0,3.878-14.6A28.9,28.9,0,0,0,48.93-8.34a28.588,28.588,0,0,0-14.6-3.878A28.9,28.9,0,0,0,9.16,2.221a28.587,28.587,0,0,0-3.878,14.6A28.9,28.9,0,0,0,19.721,41.991a28.588,28.588,0,0,0,14.6,3.878Z" transform="translate(61.76 17.5)"/></svg>