<svg xmlns="http://www.w3.org/2000/svg" width="15.761" height="15.761" viewBox="0 0 15.761 15.761"><path d="M-1.323-16.328A7.882,7.882,0,0,0-9.2-8.448a7.88,7.88,0,0,0,7.88,7.88,7.88,7.88,0,0,0,7.88-7.88A7.882,7.882,0,0,0-1.323-16.328Zm0,14.236A6.351,6.351,0,0,1-7.678-8.448,6.353,6.353,0,0,1-1.323-14.8,6.353,6.353,0,0,1,5.032-8.448,6.351,6.351,0,0,1-1.323-2.093Zm0-10.74A1.335,1.335,0,0,0-2.657-11.5a1.335,1.335,0,0,0,1.335,1.335A1.335,1.335,0,0,0,.012-11.5,1.335,1.335,0,0,0-1.323-12.833ZM.457-4.762v-.763a.381.381,0,0,0-.381-.381H-.306V-9.083a.381.381,0,0,0-.381-.381H-2.721a.381.381,0,0,0-.381.381v.763a.381.381,0,0,0,.381.381h.381v2.034h-.381a.381.381,0,0,0-.381.381v.763a.381.381,0,0,0,.381.381h2.8A.381.381,0,0,0,.457-4.762Z" transform="translate(9.203 16.328)" fill="#8b0000"/></svg>